<?xml version="1.0" encoding="UTF-8"?><svg id="Layer_1" xmlns="http://www.w3.org/2000/svg" viewBox="0 0 118.35 102.2"><defs><style>.cls-1{fill:none;stroke:#fff;stroke-miterlimit:10;stroke-width:2px;}</style></defs><path class="cls-1" d="m90.32,101.2H28.03c-14.93,0-27.03,0-27.03-16.48v-50.03c0-14.93,12.1-14.47,27.03-14.47h62.29c14.93,0,27.03,1.54,27.03,16.47v48.03c0,16.48-12.1,16.48-27.03,16.48Z"/><ellipse class="cls-1" cx="42.95" cy="70.82" rx="12.89" ry="3.37" transform="translate(-26.04 24.98) rotate(-25.16)"/><ellipse class="cls-1" cx="42.95" cy="50.79" rx="3.54" ry="12.86" transform="translate(-21.3 68.01) rotate(-64.79)"/><ellipse class="cls-1" cx="75.42" cy="70.83" rx="3.45" ry="12.86" transform="translate(-20.77 108.93) rotate(-64.81)"/><ellipse class="cls-1" cx="75.36" cy="50.48" rx="12.86" ry="3.21" transform="translate(-14.3 36.77) rotate(-25.12)"/><path class="cls-1" d="m37.52,20.22v-11.03c0-4.52,3.67-8.19,8.19-8.19h26.93c4.52,0,8.19,3.67,8.19,8.19v11.03"/><path class="cls-1" d="m41.39,20.68v-9.56c0-3.92,3.02-7.09,6.74-7.09h22.18c3.72,0,6.74,3.18,6.74,7.09v9.56"/></svg>