<?xml version="1.0" encoding="UTF-8"?><svg id="Layer_1" xmlns="http://www.w3.org/2000/svg" viewBox="0 0 95.77 130.8"><defs><style>.cls-1{fill:#fff;}</style></defs><path class="cls-1" d="m93.87,24.82L70.8,1.87c-1.2-1.2-2.84-1.87-4.54-1.87H6.44C2.88,0,0,2.88,0,6.44v117.92c0,3.56,2.88,6.44,6.44,6.44h82.89c3.55,0,6.44-2.88,6.44-6.44V29.38c0-1.71-.69-3.35-1.9-4.56ZM16.83,48.11c1.06-1.92,7.72-.7,14.88,2.71,7.16,3.41,12.1,7.73,11.04,9.65-1.06,1.92-7.72.7-14.88-2.71-7.16-3.41-12.1-7.73-11.04-9.65Zm14.82,31.94c-7.18,3.42-13.83,4.71-14.85,2.9-1.03-1.81,3.96-6.06,11.13-9.47,7.18-3.42,13.83-4.71,14.85-2.9,1.03,1.81-3.96,6.06-11.13,9.47Zm46.77,2.8c-1.04,1.86-7.69.61-14.85-2.8-7.16-3.41-12.12-7.69-11.07-9.55,1.04-1.86,7.69-.61,14.85,2.8,7.16,3.41,12.12,7.69,11.07,9.55Zm-10.63-25.79c-7.16,3.4-13.77,4.77-14.77,3.05-.99-1.72,4.01-5.87,11.17-9.28,7.16-3.4,13.77-4.77,14.77-3.05s-4.01,5.87-11.17,9.28Zm7.3-33.16c-1.26,0-2.29-1.01-2.31-2.28l-.17-13.26,15.43,15.54h-12.95Z"/></svg>