<?xml version="1.0" encoding="UTF-8"?><svg id="Layer_1" xmlns="http://www.w3.org/2000/svg" viewBox="0 0 104.93 266.68"><defs><style>.cls-1{fill:none;stroke:#fff;stroke-miterlimit:10;stroke-width:2px;}</style></defs><path class="cls-1" d="m14.3,5.24c19.51,3.7,43.57,6.96,76.34,0"/><path class="cls-1" d="m52.63,71.12l5.34,188.23c18.55,8.9,26.66,7.74,43.67.68l2.28-195.96c.17-14.3-2.15-28.52-6.84-42.03l-7.25-20.88c-6.18,1.36-18.29,3.22-31.2,3.49h-12.83c-12.73-.32-24.61-2.14-30.72-3.49l-7.25,20.88C3.16,35.55.84,49.77,1.01,64.07l2.28,195.96c19.32,7.06,29.3,7.68,43.67-.68l5.34-188.23"/><ellipse class="cls-1" cx="34.34" cy="55.43" rx="14.39" ry="3.77" transform="translate(-20.31 19.86) rotate(-25.16)"/><ellipse class="cls-1" cx="34.34" cy="33.05" rx="3.96" ry="14.36" transform="translate(-10.19 50.05) rotate(-64.79)"/><ellipse class="cls-1" cx="70.62" cy="55.43" rx="3.86" ry="14.36" transform="translate(-9.6 95.74) rotate(-64.81)"/><ellipse class="cls-1" cx="70.54" cy="32.7" rx="14.36" ry="3.58" transform="translate(-7.21 33.04) rotate(-25.12)"/></svg>