<?xml version="1.0" encoding="UTF-8"?><svg id="Layer_1" xmlns="http://www.w3.org/2000/svg" viewBox="0 0 195.79 91.75"><defs><style>.cls-1{fill:none;stroke:#fff;stroke-miterlimit:10;stroke-width:2px;}</style></defs><ellipse class="cls-1" cx="46.43" cy="48.58" rx="12.89" ry="3.37" transform="translate(-16.25 24.35) rotate(-25.16)"/><ellipse class="cls-1" cx="46.43" cy="28.55" rx="3.54" ry="12.86" transform="translate(.82 58.39) rotate(-64.79)"/><ellipse class="cls-1" cx="78.9" cy="48.59" rx="3.45" ry="12.86" transform="translate(1.36 99.31) rotate(-64.81)"/><ellipse class="cls-1" cx="78.84" cy="28.24" rx="12.86" ry="3.21" transform="translate(-4.53 36.14) rotate(-25.12)"/><path class="cls-1" d="m146.04,90.74c-31.77-.42-44.98-1.12-60.59-12.96-11.83-8.97-26.91-10.57-32.61-10.1l-.81,15.3-48.72-1.05S-7.54,23.65,17.83,1.32c0,0,11.04,9.16,29.72,9.54,9.86.2,23.54.35,31.18-4.57,0,0,12.56,4.48,41.9,21.94,18,10.72,34.46,31.67,74.14,39l-.57,15.98s-21.29,7.89-48.15,7.53Z"/><path class="cls-1" d="m1.18,57.03c31.91,9.76,45.14,2.3,67.06,7.96,16.12,4.16,21.91,9.95,30.28,14.48,8.79,4.76,17.94,5.82,34.27,6.76,22.44,1.3,42.69-.93,61.39-6.54"/></svg>