<?xml version="1.0" encoding="UTF-8"?><svg id="Layer_1" xmlns="http://www.w3.org/2000/svg" viewBox="0 0 150.64 150.77"><defs><style>.cls-1{fill:none;stroke:#fff;stroke-miterlimit:10;stroke-width:2px;}</style></defs><path class="cls-1" d="m74.4,149.77c20.38-.8,26.99-.96,41.41-6.95,3.09-1.28,5.09-4.32,5.06-7.66-.2-20.07-.86-88.21-.84-88.14,2.23,7.91,3.83,14.79,4.81,19.28.82,3.78,4.16,6.51,8.03,6.48,4.22-.03,8.91-.97,12.52-2.9,3.27-1.74,4.89-5.53,4.02-9.13-2.85-11.8-11.23-43.35-21.06-51.48-.81-.67-1.77-1.14-2.77-1.44l-22.04-6.5c-3.65-1.08-7.39.6-9.46,3.81-4.23,6.56-9.28,9.68-19.3,10.09h-.72c-8.69-.29-14.86-4.3-17.92-9.48-1.84-3.12-5.6-4.53-9.1-3.62l-21.8,5.69c-1.24.32-2.4.92-3.35,1.78C12.24,18.22,4.05,49.09,1.23,60.74c-.87,3.6.75,7.39,4.02,9.13,3.61,1.93,8.3,2.87,12.52,2.9,3.87.03,7.21-2.7,8.03-6.48.97-4.49,2.58-11.37,4.81-19.28.02-.08-.64,67.69-.84,87.97-.03,3.44,2.09,6.54,5.31,7.76,12.09,4.59,19.57,6.21,39.32,7.02"/><path class="cls-1" d="m51.87,2.29c3.76,8.19,9.74,14.1,22.52,14.54,18.43.63,22.81-14.14,24.31-15.45"/><path class="cls-1" d="m30.25,137.8c6.7,5.64,27.65,8.99,41.76,9.31,17.15.39,34.13-.64,48.45-9.31"/><path class="cls-1" d="m1,62.01c1.18,3.26,3.71,5.68,8.17,7.41,5.09,1.98,9.86,2.37,14.59.77"/><path class="cls-1" d="m149.64,64c-2.46,3.19-4.44,4.31-9,5.76-5.6,1.78-10.25,1.39-14.12,0"/><ellipse class="cls-1" cx="57.23" cy="85.76" rx="14.39" ry="3.77" transform="translate(-31.03 32.47) rotate(-25.16)"/><ellipse class="cls-1" cx="57.23" cy="63.38" rx="3.96" ry="14.36" transform="translate(-24.5 88.16) rotate(-64.79)"/><ellipse class="cls-1" cx="93.5" cy="85.76" rx="3.86" ry="14.36" transform="translate(-23.9 133.87) rotate(-64.81)"/><ellipse class="cls-1" cx="93.43" cy="63.03" rx="14.36" ry="3.58" transform="translate(-17.92 45.63) rotate(-25.12)"/></svg>