<svg width="184" height="90" viewBox="0 0 184 90" fill="none" xmlns="http://www.w3.org/2000/svg">
<g clip-path="url(#clip0_104_685)">
<path d="M159.923 30.3462C167.423 33.4615 183.231 39.1154 183.577 45.3462C183.923 51.8077 168 58.9615 158.077 63.4615C151.154 66.6923 150.692 61.1539 156.692 58.5C164.769 54.9231 176.885 49.7308 176.885 45.5769C176.885 40.9615 161.423 36.2308 155.077 33.6923C149.192 31.2692 151.269 26.7692 159.923 30.3462Z" fill="#FCFCFC"/>
<path d="M178.038 48.2308C183.346 48 184.615 43.0385 178.038 42.6923C173.307 42.4615 154.846 42.3461 143.423 42.2308C118.269 41.8846 110.307 41.7692 106.615 41.8846C102.346 42 102.577 47.3077 106.615 47.4231C115.038 47.5385 129 48.2308 143.077 48.4615C161.307 48.6923 169.73 48.5769 178.038 48.2308Z" fill="#FCFCFC"/>
<path d="M75.5766 48C79.6151 48 79.9612 42.4615 75.5766 42.4615C70.7305 42.4615 52.1535 42.1154 40.4997 42C14.9997 41.6538 6.92276 41.5385 3.11506 41.5385C-1.26955 41.6538 -0.923397 46.9615 3.11506 47.0769C11.6535 47.1923 25.8458 47.8846 40.1535 48.1154C58.4997 48.4615 67.0381 48.1154 75.5766 48Z" fill="#FCFCFC"/>
<path d="M70.0389 26.3077C72.8082 30.1154 76.8466 27 74.3082 23.4231C73.5005 22.2692 72.1158 20.1923 68.6543 15.2308C64.8466 9.57693 63.462 7.84616 62.8851 7.03847C60.2312 3.46155 56.3082 6.8077 58.8466 10.6154C60.2312 12.5769 60.9235 13.5 64.2697 18.3462C67.1543 22.5 68.6543 24.4615 70.0389 26.3077Z" fill="#FCFCFC"/>
<path d="M87.9229 22.9615C87.9229 27.6923 92.9998 27.4615 93.1152 23.0769C93.1152 21.6923 93.2305 19.1538 93.3459 13.1538C93.5767 6.34614 93.4613 4.15383 93.4613 3.11537C93.3459 -1.38463 88.1536 -0.92309 88.0382 3.57691C88.0382 5.99999 88.0382 7.15383 87.9229 12.9231C87.9229 18.2308 87.9229 20.5384 87.9229 22.9615Z" fill="#FCFCFC"/>
<path d="M107.307 24C105.23 28.2692 109.846 30.2308 111.923 26.4231C112.615 25.2692 113.653 22.9615 116.423 17.6538C119.538 11.5384 120.461 9.57691 120.923 8.65383C122.769 4.61537 117.923 2.65383 115.846 6.6923C114.807 8.8846 114.23 9.80768 111.692 15.1154C109.384 19.6154 108.346 21.8077 107.307 24Z" fill="#FCFCFC"/>
<path d="M69.5769 63.3462C72.3461 59.5385 76.3846 62.6539 73.8461 66.2308C73.0385 67.3846 71.6538 69.4616 68.1923 74.4231C64.3846 80.0769 63 81.8077 62.4231 82.6154C59.6538 86.1923 55.7308 82.8462 58.3846 79.0385C59.7692 77.0769 60.4615 76.1539 63.8077 71.3077C66.8077 67.1539 68.1923 65.3077 69.5769 63.3462Z" fill="#FCFCFC"/>
<path d="M87.9229 67.0385C87.9229 62.3077 92.9998 62.5385 93.1152 66.9231C93.1152 68.3077 93.2305 70.8462 93.3459 76.8462C93.5767 83.6539 93.4613 85.8462 93.4613 86.8846C93.3459 91.3846 88.1536 90.9231 88.0382 86.4231C88.0382 84 88.0382 82.8462 87.9229 77.0769C87.9229 71.8846 87.9229 69.4616 87.9229 67.0385Z" fill="#FCFCFC"/>
<path d="M107.307 66.1154C105.23 61.8461 109.846 59.8846 111.923 63.6923C112.615 64.8461 113.653 67.1538 116.423 72.5769C119.538 78.6923 120.461 80.6538 120.923 81.5769C122.769 85.6154 117.923 87.5769 115.846 83.5385C114.807 81.3461 114.23 80.4231 111.692 75.1154C109.384 70.3846 108.346 68.1923 107.307 66.1154Z" fill="#FCFCFC"/>
</g>
<defs>
<clipPath id="clip0_104_685">
<rect width="183.692" height="90" fill="white"/>
</clipPath>
</defs>
</svg>
