<svg width="24" height="24" viewBox="0 0 24 24" fill="none" xmlns="http://www.w3.org/2000/svg">
<g clip-path="url(#clip0_1052_4440)">
<path d="M21.8941 1.25H2.10586C1.99972 1.25 1.91206 1.33292 1.90617 1.43891L1 17.75C1 20.8056 3.30937 22.6389 12.6111 22.6389C21.7778 22.6389 23 19.5833 23 17.75L22.0938 1.43891C22.0879 1.33292 22.0003 1.25 21.8941 1.25Z" stroke="white" stroke-width="2"/>
<mask id="path-2-inside-1_1052_4440" fill="white">
<path d="M19.3327 0.333333C19.3327 1.29636 19.143 2.24996 18.7745 3.13968C18.4059 4.0294 17.8658 4.83782 17.1848 5.51878C16.5038 6.19975 15.6954 6.73992 14.8057 7.10845C13.916 7.47698 12.9624 7.66667 11.9993 7.66667C11.0363 7.66667 10.0827 7.47698 9.193 7.10845C8.30328 6.73992 7.49486 6.19975 6.8139 5.51878C6.13294 4.83782 5.59277 4.0294 5.22423 3.13968C4.8557 2.24996 4.66602 1.29636 4.66602 0.333333L11.9993 0.333333H19.3327Z"/>
</mask>
<path d="M19.3327 0.333333C19.3327 1.29636 19.143 2.24996 18.7745 3.13968C18.4059 4.0294 17.8658 4.83782 17.1848 5.51878C16.5038 6.19975 15.6954 6.73992 14.8057 7.10845C13.916 7.47698 12.9624 7.66667 11.9993 7.66667C11.0363 7.66667 10.0827 7.47698 9.193 7.10845C8.30328 6.73992 7.49486 6.19975 6.8139 5.51878C6.13294 4.83782 5.59277 4.0294 5.22423 3.13968C4.8557 2.24996 4.66602 1.29636 4.66602 0.333333L11.9993 0.333333H19.3327Z" stroke="white" stroke-width="4" mask="url(#path-2-inside-1_1052_4440)"/>
</g>
<defs>
<clipPath id="clip0_1052_4440">
<rect width="24" height="24" fill="white"/>
</clipPath>
</defs>
</svg>
