<svg width="173" height="103" viewBox="0 0 173 103" fill="none" xmlns="http://www.w3.org/2000/svg">
<path d="M10.9375 21.3057C10.9941 10.1179 8.90282 1.03758 6.26642 1.02423C3.63003 1.01089 1.4469 10.0696 1.39027 21.2574C1.33364 32.4452 3.42496 41.5255 6.06136 41.5388C8.69776 41.5522 10.8809 32.4935 10.9375 21.3057Z" stroke="white" stroke-width="2" stroke-miterlimit="10"/>
<path d="M10.6498 73.9395C10.7064 62.7517 8.61508 53.6714 5.97869 53.658C3.34229 53.6447 1.15916 62.7034 1.10253 73.8911C1.04591 85.0789 3.13722 94.1593 5.77362 94.1726C8.41002 94.1859 10.5931 85.1273 10.6498 73.9395Z" stroke="white" stroke-width="2" stroke-miterlimit="10"/>
<path d="M149.731 81.6601C145.672 83.333 149.609 87.1478 147.447 90.2283C144.55 94.3492 145.876 93.1863 141.102 101L108.217 85.5974C112.807 78.2737 115.765 75.54 114.561 71.3172C112.705 64.7686 106.36 57.4857 106.727 46.6123C107.115 35.6778 114.928 26.9056 125.965 23.2947C142.877 17.7662 157.892 24.3352 165.684 33.6989C176.578 46.7959 169.724 81.1093 165.582 84.7814C162.645 87.3722 151.812 83.741 141.918 77.1517C139.45 75.4992 139.756 71.3172 139.348 67.1759" stroke="white" stroke-width="2" stroke-miterlimit="10"/>
<path d="M79.6358 46.1235H34.4083" stroke="white" stroke-width="2" stroke-miterlimit="10"/>
<path d="M136.247 40.8801C139.334 40.8801 141.836 38.3775 141.836 35.2904C141.836 32.2033 139.334 29.7007 136.247 29.7007C133.16 29.7007 130.657 32.2033 130.657 35.2904C130.657 38.3775 133.16 40.8801 136.247 40.8801Z" stroke="white" stroke-width="2" stroke-miterlimit="10"/>
<path d="M147.569 58.0573C150.656 58.0573 153.159 55.5547 153.159 52.4676C153.159 49.3805 150.656 46.8779 147.569 46.8779C144.482 46.8779 141.979 49.3805 141.979 52.4676C141.979 55.5547 144.482 58.0573 147.569 58.0573Z" stroke="white" stroke-width="2" stroke-miterlimit="10"/>
<path d="M133.003 30.6392H79.6358V57.0576H144.774" stroke="white" stroke-width="2" stroke-miterlimit="10"/>
</svg>
