<svg xmlns="http://www.w3.org/2000/svg" xmlns:xlink="http://www.w3.org/1999/xlink" width="233.035" height="56.67" viewBox="0 0 233.035 56.67">
  <defs>
    <linearGradient id="linear-gradient" x1="255.756" y1="1" x2="255.756" gradientUnits="objectBoundingBox">
      <stop offset="0.001" stop-color="#04103a"/>
      <stop offset="0.135" stop-color="#491d69"/>
      <stop offset="0.276" stop-color="#a7094e"/>
      <stop offset="0.422" stop-color="#c30034"/>
      <stop offset="0.558" stop-color="#e92a17"/>
      <stop offset="0.706" stop-color="#ffa100"/>
      <stop offset="0.842" stop-color="#ffe420"/>
      <stop offset="0.958" stop-color="#fffbe1"/>
    </linearGradient>
    <linearGradient id="linear-gradient-2" x1="264.91" y1="1" x2="264.91" gradientUnits="objectBoundingBox">
      <stop offset="0" stop-color="#04103a"/>
      <stop offset="0.136" stop-color="#32343f"/>
      <stop offset="0.394" stop-color="#1e56a4"/>
      <stop offset="0.648" stop-color="#446b85"/>
      <stop offset="0.757" stop-color="#658392"/>
      <stop offset="0.897" stop-color="#fffbe1"/>
    </linearGradient>
    <linearGradient id="linear-gradient-3" x1="434.764" y1="1" x2="434.764" gradientUnits="objectBoundingBox">
      <stop offset="0" stop-color="#04103a"/>
      <stop offset="0.136" stop-color="#32343f"/>
      <stop offset="0.394" stop-color="#2b5575"/>
      <stop offset="0.648" stop-color="#446b85"/>
      <stop offset="0.757" stop-color="#658392"/>
      <stop offset="0.897" stop-color="#fffbe1"/>
    </linearGradient>
  </defs>
  <g id="Group_67" data-name="Group 67" transform="translate(-1327.798 -439.118)">
    <g id="Group_22" data-name="Group 22" transform="translate(-2504)">
      <g id="Group_21" data-name="Group 21">
        <path id="Path_129" data-name="Path 129" d="M4005.546,466.46a17.339,17.339,0,0,0,2.44,2.283c.933.717,1.314,3.064,2.085,3.464" fill="none" stroke="#fff" stroke-miterlimit="10" stroke-width="0.25"/>
        <path id="Path_130" data-name="Path 130" d="M4009.361,465.03a5.522,5.522,0,0,0-2.756-.337,3,3,0,0,0-1.349.764" fill="none" stroke="#fff" stroke-miterlimit="10" stroke-width="0.25"/>
        <path id="Path_131" data-name="Path 131" d="M4033.733,477.808c-.457-.57-.983.884-4.077.573-1.68-.169-1.732-1.794-4.967-1.656-1.461.063-5.207-2.14-5.477-2.239-1.465-.535-2.215.307-4.745.38-1.139.033-3.59-.256-4.2-.97-.357-.419,1.127-.41.687-.928-.493-.581-1.009-.62-1.993-1.044a7.294,7.294,0,0,1-2.358-1.424c-.642-.633-.37-.742-1.533-2.562-.789-1.235-.6-3.741-.33-4.581.45-1.414,1.2-1.549,1.863-2.916.425-.881-.014-1.19.46-1.8.655-.848,1.672-.489,2.372-1.329.452-.543.248-.957.475-1.708.819-2.721,5.5-3.986,5.5-3.986a3.463,3.463,0,0,1,1.519-1.709c1.072-.552,1.987-.13,2.847-.854.454-.382.33-.887.759-1.234a11.286,11.286,0,0,1,6.108-2.835c2.643-.585,2.944.5,3.477.558,1.245.145,1.632-.335,2.942-.285.746.029,1.227,2.173,1.558,1.392.924-2.185,3.9-.253,5.275-.158,1.246.086,2.782.013,3.528.688,2.12,1.918,2.771.408,3.892,1.331,1.224,1.007-.6,1.015,3.243,1.545,1.863.257,1.5,1.885,2.244,2.51.663.555,1.282,0,2.183.569,2.449,1.548.778,2.126,3.927,3.733.977.5-.321,2.185.836,2.313a2.127,2.127,0,0,1,2.117,1.451c.739,1.429-.128,1.341.536,3.141a6.95,6.95,0,0,0,1.69,2.689c1.158,1.437-.521,2.142-.254,3.851.071.453.674,1.89,0,2.942-.851,1.33-.294,1.384-1.972,1.423-1.36.032-1.812-.166-2.514.19-1.066.541-1.255,1.677-1.8,2.847a11.8,11.8,0,0,1-3.607,4.081c-2.1,1.393-3.34.8-3.891,1.9-.261.519-.263,1.208,1.519,5.03,1.576,3.38,2.179,4.132,1.8,5.03-.51,1.215-2.425,1.769-3.891,1.613-.915-.1-1.508-.455-5.22-4.081-3.441-3.36-3.6-4.3-4.176-5.409a7.265,7.265,0,0,1-.724-2.9c-.768-1.04-1.657.186-3.072-.706C4034.433,481.094,4033.733,477.808,4033.733,477.808Z" fill="none" stroke="#fff" stroke-miterlimit="10" stroke-width="0.75"/>
        <path id="Path_132" data-name="Path 132" d="M4059.357,474.866c-.374-1.768-1.8-2.073-3.15-1.949a59.941,59.941,0,0,0-5.954,1.018,22.8,22.8,0,0,1-7.127.11c-2.123-.247-4.772-.8-5.731.228-1.6,1.724.658,3.244,1.759,4.128,1.264,1.015,2.289,3.213,4.2,4.467,1.029.676,4.08.886,7.07.378" fill="none" stroke="#fff" stroke-miterlimit="10" stroke-width="0.75"/>
        <path id="Path_133" data-name="Path 133" d="M4034.626,446.648c.046,2.036-1.933,3.852-2.394,5.879-.446,1.957.343,1.535-.165,3.464-.627,2.375-1.845,1.975-2.354,4.495a13.387,13.387,0,0,0-.241,2.939" fill="none" stroke="#fff" stroke-miterlimit="10" stroke-width="0.25"/>
        <path id="Path_134" data-name="Path 134" d="M4032.023,446.623c-.15.4-2,.967-2.65,2.7-1.2,3.178.336,5.526-1.325,5.526-.849,0-3.1,1.5-4.711,4.015" fill="none" stroke="#fff" stroke-miterlimit="10" stroke-width="0.25"/>
        <path id="Path_135" data-name="Path 135" d="M4029.713,448.659c-.98-.069-6.376-.988-6.876.466-.243.7-2.4.418-4.242,2.909-1.468,1.985-2.542,2.469-1.635,6.318" fill="none" stroke="#fff" stroke-miterlimit="10" stroke-width="0.25"/>
        <path id="Path_136" data-name="Path 136" d="M4017.583,453.331c-.266.47-1.311-.368-2.906,1.086-1.418,1.293-2.1,1.3-3.353,2.464-1.416,1.31.121,2.492-1.333,3.07-2.955,1.176-2.766,3.652-2.162,3.675" fill="none" stroke="#fff" stroke-miterlimit="10" stroke-width="0.25"/>
        <path id="Path_137" data-name="Path 137" d="M4025.075,462.823c-1.148-3.083-2.607-3.495-3.077-3.448-.771.079-.651,1.847-2.361,3.385-.953.857-1.461.733-2.755,1.732a10.163,10.163,0,0,0-2.205,2.362" fill="none" stroke="#fff" stroke-miterlimit="10" stroke-width="0.25"/>
        <path id="Path_138" data-name="Path 138" d="M4027.666,472.207c-2.8-1.847-2.908-3.525-2.913-3.936-.035-3.234,5.681-5.446,8.266-6.14a20.758,20.758,0,0,1,5.923-.443" fill="none" stroke="#fff" stroke-miterlimit="10" stroke-width="0.25"/>
        <path id="Path_139" data-name="Path 139" d="M4035.713,461.708c-.175-.708-1.478-2.168-1.255-3.435.448-2.54,2.639-2.54,3.287-3.424.524-.716.4-3.383,3.535-3.127a2.54,2.54,0,0,1,2.34,3.127c-.339,1.742,3.1,1.97,2.309,5.1" fill="none" stroke="#fff" stroke-miterlimit="10" stroke-width="0.25"/>
        <path id="Path_140" data-name="Path 140" d="M4055.217,466.539a4.572,4.572,0,0,1,.63-1.889c1.1-1.795,2.928-1.689,3.149-2.756.1-.469.256-3.294-3.424-4.029-1.535-.306-3.748-2.655-4.589-2.524-2.433.377-.98-.79-2.076-1.5-.825-.531-2.191-.514-4.317-.531" fill="none" stroke="#fff" stroke-miterlimit="10" stroke-width="0.25"/>
        <path id="Path_141" data-name="Path 141" d="M4051.2,470.632c1.154-1.481,1.132-2.168.944-2.519-.541-1.013-2.833.073-6.533-.551-3.3-.555-3.864-1.819-5.51-1.259-2.088.71-2.209,3.093-4.015,3.227-1.333.1-1.634-1.171-3.306-1.259a4.064,4.064,0,0,0-3.857,2.282c-.7,1.666.787,6.74,2.922,4.566" fill="none" stroke="#fff" stroke-miterlimit="10" stroke-width="0.25"/>
        <path id="Path_142" data-name="Path 142" d="M4016.777,473.623c-3.822-.078-4.6-1.52-4.461-2.361.157-.94,1.463-1.375,1.835-1.382,1.7-.032,3.193.985,6.221.516" fill="none" stroke="#fff" stroke-miterlimit="10" stroke-width="0.25"/>
        <path id="Path_143" data-name="Path 143" d="M4013.165,470.215a5.713,5.713,0,0,1-3.144-1.363c-.942-1.03-.777-3.9-.394-5.739.367-1.76,2.712-1.965,3.161-2.232" fill="none" stroke="#fff" stroke-miterlimit="10" stroke-width="0.25"/>
        <path id="Path_144" data-name="Path 144" d="M4047.455,462.578c-1.671.667-4.675.583-5.935-.526a4.773,4.773,0,0,1-.708-6.061" fill="none" stroke="#fff" stroke-miterlimit="10" stroke-width="0.25"/>
        <path id="Path_145" data-name="Path 145" d="M4048.6,456.819c.131.152-.738,1.574,1.58,6.177.431.858-1,2.638-1.5,3.07" fill="none" stroke="#fff" stroke-miterlimit="10" stroke-width="0.25"/>
        <path id="Path_146" data-name="Path 146" d="M4046.514,471.239c2.482,2.2,5.73,1.4,7.523-1.079" fill="none" stroke="#fff" stroke-miterlimit="10" stroke-width="0.25"/>
        <path id="Path_147" data-name="Path 147" d="M4046.957,470.4c-1.162,3.149-5.174.84-7.247,1.259" fill="none" stroke="#fff" stroke-miterlimit="10" stroke-width="0.25"/>
        <path id="Path_148" data-name="Path 148" d="M4040.969,468.034c.205,4.565-2.577,4.173-6.3,3.717" fill="none" stroke="#fff" stroke-miterlimit="10" stroke-width="0.25"/>
        <path id="Path_149" data-name="Path 149" d="M4037.753,472.012c-.2,1.684-1.452,2.151-3.868,2.151" fill="none" stroke="#fff" stroke-miterlimit="10" stroke-width="0.25"/>
        <path id="Path_150" data-name="Path 150" d="M4036.839,475.708a8.023,8.023,0,0,0-2.954,0c-1.267.2-2.5,1.391-3.228,1.536-1.061.212-2.125-3.96-5.116-2.912" fill="none" stroke="#fff" stroke-miterlimit="10" stroke-width="0.25"/>
        <path id="Path_151" data-name="Path 151" d="M4024.045,467.483a6.209,6.209,0,0,0-2.6,1.5c-1.8,1.75-2.229,4.985-2.235,5.507" fill="none" stroke="#fff" stroke-miterlimit="10" stroke-width="0.25"/>
        <path id="Path_152" data-name="Path 152" d="M4012.788,466.145l5.274,2.362" fill="none" stroke="#fff" stroke-miterlimit="10" stroke-width="0.25"/>
        <path id="Path_153" data-name="Path 153" d="M4021.762,451.425a12.274,12.274,0,0,0-.551,2.991,19.029,19.029,0,0,0,.787,4.959" fill="none" stroke="#fff" stroke-miterlimit="10" stroke-width="0.25"/>
        <path id="Path_154" data-name="Path 154" d="M4026.092,451.346c-.132,1.706-1.559,2.5-.791,5" fill="none" stroke="#fff" stroke-miterlimit="10" stroke-width="0.25"/>
        <path id="Path_155" data-name="Path 155" d="M4059,466.224c-.748,2.138-3.921,1.611-3.971,1.259-.149-1.042-2.313.669-2.878.63" fill="none" stroke="#fff" stroke-miterlimit="10" stroke-width="0.25"/>
        <path id="Path_156" data-name="Path 156" d="M4053.879,459.375c2.036.271-2.068,2.559-1.181,6.849" fill="none" stroke="#fff" stroke-miterlimit="10" stroke-width="0.25"/>
        <path id="Path_157" data-name="Path 157" d="M4033.064,466.224a8.571,8.571,0,0,1,2.867-3.224,8.817,8.817,0,0,1,5.038-1.539" fill="none" stroke="#fff" stroke-miterlimit="10" stroke-width="0.25"/>
        <path id="Path_158" data-name="Path 158" d="M4058.411,473.337a17.442,17.442,0,0,1,2.042-2.43,6.912,6.912,0,0,1,3.424-1.692" fill="none" stroke="#fff" stroke-miterlimit="10" stroke-width="0.25"/>
        <path id="Path_159" data-name="Path 159" d="M4015.034,460.591c.633,1.158,2.609,1.059,2.549,3.414" fill="none" stroke="#fff" stroke-miterlimit="10" stroke-width="0.25"/>
        <path id="Path_160" data-name="Path 160" d="M4044.59,447.987a6.718,6.718,0,0,0-2.963,1.319,4.235,4.235,0,0,0-1.387,2.4" fill="none" stroke="#fff" stroke-miterlimit="10" stroke-width="0.25"/>
        <path id="Path_161" data-name="Path 161" d="M4056.716,455.4c-.749.3-1.833-.2-4.472-.877" fill="none" stroke="#fff" stroke-miterlimit="10" stroke-width="0.25"/>
        <path id="Path_162" data-name="Path 162" d="M4061.144,464.226c-.75.3.527-2.1-2.112-2.775" fill="none" stroke="#fff" stroke-miterlimit="10" stroke-width="0.25"/>
        <path id="Path_163" data-name="Path 163" d="M4026.085,460.2a3.561,3.561,0,0,1,1.856,4.029" fill="none" stroke="#fff" stroke-miterlimit="10" stroke-width="0.25"/>
        <path id="Path_164" data-name="Path 164" d="M4022.085,464.226a3.507,3.507,0,0,1,.581,2.234" fill="none" stroke="#fff" stroke-miterlimit="10" stroke-width="0.25"/>
        <path id="Path_165" data-name="Path 165" d="M4021.721,453.326a3.95,3.95,0,0,0-.119,2.286" fill="none" stroke="#fff" stroke-miterlimit="10" stroke-width="0.25"/>
        <path id="Path_166" data-name="Path 166" d="M4029.518,460.3a6.59,6.59,0,0,0-.391,3.05" fill="none" stroke="#fff" stroke-miterlimit="10" stroke-width="0.25"/>
        <path id="Path_167" data-name="Path 167" d="M4009.7,466.928a2.865,2.865,0,0,0,.879,2.114" fill="none" stroke="#fff" stroke-miterlimit="10" stroke-width="0.25"/>
        <path id="Path_168" data-name="Path 168" d="M4028.457,452.272a3.625,3.625,0,0,1-.028,2.3" fill="none" stroke="#fff" stroke-miterlimit="10" stroke-width="0.25"/>
        <path id="Path_169" data-name="Path 169" d="M4044.228,456.876c.581.449.738.842,1.162,1.989" fill="none" stroke="#fff" stroke-miterlimit="10" stroke-width="0.25"/>
        <path id="Path_170" data-name="Path 170" d="M4061.963,468.034c.527-.51.939-.609,2.134-.865" fill="none" stroke="#fff" stroke-miterlimit="10" stroke-width="0.25"/>
        <path id="Path_171" data-name="Path 171" d="M4058.827,473.326a2.776,2.776,0,0,1,1.261-1.5" fill="none" stroke="#fff" stroke-miterlimit="10" stroke-width="0.25"/>
        <path id="Path_172" data-name="Path 172" d="M4038.1,462.584a3.625,3.625,0,0,1,2.179-.745" fill="none" stroke="#fff" stroke-miterlimit="10" stroke-width="0.25"/>
        <path id="Path_173" data-name="Path 173" d="M4040.5,469.724a2.2,2.2,0,0,1-1.442,1.8" fill="none" stroke="#fff" stroke-miterlimit="10" stroke-width="0.25"/>
        <path id="Path_174" data-name="Path 174" d="M4051.51,471.742a2.2,2.2,0,0,1-2.279.327" fill="none" stroke="#fff" stroke-miterlimit="10" stroke-width="0.25"/>
        <path id="Path_175" data-name="Path 175" d="M4049.7,462.355c.245.691.288.72.023,1.913" fill="none" stroke="#fff" stroke-miterlimit="10" stroke-width="0.25"/>
        <path id="Path_176" data-name="Path 176" d="M4058.344,459.95c.382.626.43.645.418,1.867" fill="none" stroke="#fff" stroke-miterlimit="10" stroke-width="0.25"/>
        <path id="Path_177" data-name="Path 177" d="M4053.952,459.8c.245.691-.176.175-.44,1.369" fill="none" stroke="#fff" stroke-miterlimit="10" stroke-width="0.25"/>
        <path id="Path_178" data-name="Path 178" d="M4016.626,462a3.51,3.51,0,0,1,.582,2.234" fill="none" stroke="#fff" stroke-miterlimit="10" stroke-width="0.25"/>
        <path id="Path_179" data-name="Path 179" d="M4021.762,462.484c1.087,1.247,1.786,4.625.958,5.55-1,1.122-.958-2.112-5.077-1.347" fill="none" stroke="#fff" stroke-miterlimit="10" stroke-width="0.25"/>
        <path id="Path_180" data-name="Path 180" d="M4029.309,469.879c-.862-1.611-.88-2.785,0-3.362,1.825-1.2,2.791-2.687,3.224-2.842" fill="none" stroke="#fff" stroke-miterlimit="10" stroke-width="0.25"/>
        <path id="Path_181" data-name="Path 181" d="M4013.783,463.845a4.39,4.39,0,0,1-1.061-3.563,4.071,4.071,0,0,1,1.146-2.121" fill="none" stroke="#fff" stroke-miterlimit="10" stroke-width="0.25"/>
        <path id="Path_182" data-name="Path 182" d="M4025.621,470.4a6.185,6.185,0,0,0-2.251,2.527,4.043,4.043,0,0,0-.128,2.248" fill="none" stroke="#fff" stroke-miterlimit="10" stroke-width="0.25"/>
        <path id="Path_183" data-name="Path 183" d="M4064.1,466.46c-1.735.494-3.134,2.47-4.695,3.6-.978.71-3.447,1.352-6.328,1.175" fill="none" stroke="#fff" stroke-miterlimit="10" stroke-width="0.25"/>
        <g id="Group_20" data-name="Group 20">
          <g id="Group_19" data-name="Group 19">
            <g id="Group_18" data-name="Group 18">
              <g id="Group_15" data-name="Group 15">
                <path id="Path_184" data-name="Path 184" d="M4036.492,445.648a23.561,23.561,0,0,1,2.907.586c1.543.322,2.212.211,3.687.446.682.109,1.533,1.288,1.533,1.288-1.347.744-3.02.652-3.863,3.272a6.149,6.149,0,0,0-1.587,1.183c-.952.97-.421,1.263-1.223,2.435-.376.55-.4.354-2.193,1.492a2.764,2.764,0,0,0-1.163,2.512,4.966,4.966,0,0,0,1.363,2.778,14.975,14.975,0,0,0-6.451,1.771c-.241.145.033-3.167.59-4.039,1.135-1.777,1.876-2.458,2.058-3.375.371-1.86-.194-2.1.169-3.454.664-2.489,1.347-2.57,1.892-4.206C4034.763,446.68,4034.887,445.471,4036.492,445.648Z" fill="url(#linear-gradient)"/>
              </g>
              <g id="Group_17" data-name="Group 17">
                <g id="Group_16" data-name="Group 16" opacity="0.75" style="mix-blend-mode: screen;isolation: isolate">
                  <path id="Path_185" data-name="Path 185" d="M4036.492,445.648a23.561,23.561,0,0,1,2.907.586c1.543.322,2.212.211,3.687.446.682.109,1.533,1.288,1.533,1.288-1.347.744-3.02.652-3.863,3.272a6.149,6.149,0,0,0-1.587,1.183c-.952.97-.421,1.263-1.223,2.435-.376.55-.4.354-2.193,1.492a2.764,2.764,0,0,0-1.163,2.512,4.966,4.966,0,0,0,1.363,2.778,14.975,14.975,0,0,0-6.451,1.771c-.241.145.033-3.167.59-4.039,1.135-1.777,1.876-2.458,2.058-3.375.371-1.86-.194-2.1.169-3.454.664-2.489,1.347-2.57,1.892-4.206C4034.763,446.68,4034.887,445.471,4036.492,445.648Z" fill="#fff"/>
                </g>
              </g>
            </g>
          </g>
        </g>
        <path id="Path_186" data-name="Path 186" d="M4048.274,484.709c.7,1.361,1.847,3.38,2.552,4.746.584,1.132,1.967,3.17,2.552,4.3" fill="none" stroke="#fff" stroke-miterlimit="10" stroke-width="0.25"/>
        <path id="Path_187" data-name="Path 187" d="M4048.7,486.926c.7,1.362.929,1.66,1.634,3.026.584,1.132,1.967,3.169,2.552,4.3" fill="none" stroke="#fff" stroke-miterlimit="10" stroke-width="0.25"/>
        <path id="Path_188" data-name="Path 188" d="M4045.235,483.653c.574.6,1.163,1.26,1.753,1.987a32.267,32.267,0,0,1,2.688,3.857" fill="none" stroke="#fff" stroke-miterlimit="10" stroke-width="0.25"/>
        <path id="Path_189" data-name="Path 189" d="M4045.994,485.95c.574.6,1.164,1.261,1.753,1.987a32.267,32.267,0,0,1,2.688,3.857" fill="none" stroke="#fff" stroke-miterlimit="10" stroke-width="0.25"/>
        <path id="Path_190" data-name="Path 190" d="M4046.848,488.726a14.032,14.032,0,0,1,2.734,2.734" fill="none" stroke="#fff" stroke-miterlimit="10" stroke-width="0.25"/>
        <path id="Path_191" data-name="Path 191" d="M4045.343,489.621c.441.333,2.18,2.122,3.212,3.165.526.531,1.449,1.866,1.8,2.333" fill="none" stroke="#fff" stroke-miterlimit="10" stroke-width="0.25"/>
        <path id="Path_192" data-name="Path 192" d="M4043.6,485.105c.44.333,4.343,6.4,5.375,7.447.526.531,1.449,1.866,1.8,2.333" fill="none" stroke="#fff" stroke-miterlimit="10" stroke-width="0.25"/>
        <path id="Path_193" data-name="Path 193" d="M4049.2,491.888a14.043,14.043,0,0,1,2.148,3.215" fill="none" stroke="#fff" stroke-miterlimit="10" stroke-width="0.25"/>
        <path id="Path_194" data-name="Path 194" d="M4041.375,485.105a15.9,15.9,0,0,0,1.5,2.8,35.915,35.915,0,0,0,4.927,5.213" fill="none" stroke="#fff" stroke-miterlimit="10" stroke-width="0.25"/>
        <path id="Path_195" data-name="Path 195" d="M4044.076,483.957c.434.767,2,2.3,2.438,3.067" fill="none" stroke="#fff" stroke-miterlimit="10" stroke-width="0.25"/>
        <path id="Path_196" data-name="Path 196" d="M4034.651,477.953a4.534,4.534,0,0,0,3.179,3.64" fill="none" stroke="#fff" stroke-miterlimit="10" stroke-width="0.25"/>
        <path id="Path_197" data-name="Path 197" d="M4036.356,479.427c.289.284.611.579.967.876a15.811,15.811,0,0,0,1.291.967" fill="none" stroke="#fff" stroke-miterlimit="10" stroke-width="0.25"/>
        <path id="Path_198" data-name="Path 198" d="M4038.614,477.8a3.71,3.71,0,0,1,1.625-.886,11.107,11.107,0,0,1,4.191-.547c1.872.05,5.941,1.845,14.4-1.5" fill="none" stroke="#fff" stroke-miterlimit="10" stroke-width="0.25"/>
        <path id="Path_199" data-name="Path 199" d="M4039.154,478.4c.245-.348.42-.462,1.085-.642a13.487,13.487,0,0,1,4.555-.248c1.872.05,5.577,1.546,14.033-1.8" fill="none" stroke="#fff" stroke-miterlimit="10" stroke-width="0.25"/>
        <path id="Path_200" data-name="Path 200" d="M4039.972,479.228c1.578-1.122,3.822-.8,5.168-.767,1.872.05,5.135.767,13.054-1.478" fill="none" stroke="#fff" stroke-miterlimit="10" stroke-width="0.25"/>
        <path id="Path_201" data-name="Path 201" d="M4040.5,479.849a9.826,9.826,0,0,1,4.536-.422c1.873.05,5.452.1,12.66-1.555" fill="none" stroke="#fff" stroke-miterlimit="10" stroke-width="0.25"/>
        <path id="Path_202" data-name="Path 202" d="M4041.1,480.664c1.877-.315,9.43-.815,15.606-1.436" fill="none" stroke="#fff" stroke-miterlimit="10" stroke-width="0.25"/>
        <path id="Path_203" data-name="Path 203" d="M4041.888,481.593a85.67,85.67,0,0,1,13.942-1.27" fill="none" stroke="#fff" stroke-miterlimit="10" stroke-width="0.25"/>
        <path id="Path_204" data-name="Path 204" d="M4042.844,482.175a45.64,45.64,0,0,1,12.115-1.1" fill="none" stroke="#fff" stroke-miterlimit="10" stroke-width="0.25"/>
        <path id="Path_205" data-name="Path 205" d="M4042.851,482.713a38.677,38.677,0,0,1,11.408-1.136" fill="none" stroke="#fff" stroke-miterlimit="10" stroke-width="0.25"/>
        <path id="Path_206" data-name="Path 206" d="M4043.35,482.868a55.93,55.93,0,0,1,10.438-.88" fill="none" stroke="#fff" stroke-miterlimit="10" stroke-width="0.25"/>
        <path id="Path_207" data-name="Path 207" d="M4043.887,483.12a32.1,32.1,0,0,1,9.1-.787" fill="none" stroke="#fff" stroke-miterlimit="10" stroke-width="0.25"/>
        <path id="Path_208" data-name="Path 208" d="M4044.519,483.265a38.875,38.875,0,0,1,8.118-.722" fill="none" stroke="#fff" stroke-miterlimit="10" stroke-width="0.25"/>
        <path id="Path_209" data-name="Path 209" d="M4045.343,483.46a30.5,30.5,0,0,1,6.7-.645" fill="none" stroke="#fff" stroke-miterlimit="10" stroke-width="0.25"/>
        <path id="Path_210" data-name="Path 210" d="M4037.991,477.176a3.733,3.733,0,0,1,1.626-.886,11.121,11.121,0,0,1,4.19-.547c1.873.05,4.692-.267,10.452-2.582" fill="none" stroke="#fff" stroke-miterlimit="10" stroke-width="0.25"/>
        <path id="Path_211" data-name="Path 211" d="M4037.017,476.64a3.71,3.71,0,0,1,1.625-.886,11.086,11.086,0,0,1,4.191-.547c1.872.05,2.048.529,9.738-1.5" fill="none" stroke="#fff" stroke-miterlimit="10" stroke-width="0.25"/>
        <path id="Path_212" data-name="Path 212" d="M4036.842,475.955a3.708,3.708,0,0,1,1.626-.886,11.1,11.1,0,0,1,4.19-.547c1.872.05.676.488,6.749-.456" fill="none" stroke="#fff" stroke-miterlimit="10" stroke-width="0.25"/>
        <path id="Path_213" data-name="Path 213" d="M4036.665,475.256a3.566,3.566,0,0,1,1.626-.885,27.846,27.846,0,0,1,4.19-.547" fill="none" stroke="#fff" stroke-miterlimit="10" stroke-width="0.25"/>
        <path id="Path_214" data-name="Path 214" d="M4046.957,476.721a23.63,23.63,0,0,1,4.17-1.711c1.282-.4,3.579-1.728,5.08-1.946" fill="none" stroke="#fff" stroke-miterlimit="10" stroke-width="0.25"/>
        <path id="Path_215" data-name="Path 215" d="M4044.348,476.369c2.609-.561,3.268-.644,4.372-.935,2.923-.772,4.038-2.055,5.539-2.273" fill="none" stroke="#fff" stroke-miterlimit="10" stroke-width="0.25"/>
        <path id="Path_216" data-name="Path 216" d="M4048.274,476.852a25.57,25.57,0,0,1,4.344-1.842c1.283-.4,3.579-1.875,5.08-2.093" fill="none" stroke="#fff" stroke-miterlimit="10" stroke-width="0.25"/>
        <path id="Path_217" data-name="Path 217" d="M4049.412,476.912a23.654,23.654,0,0,1,4.169-1.711c1.283-.4,3.329-1.646,4.83-1.864" fill="none" stroke="#fff" stroke-miterlimit="10" stroke-width="0.25"/>
        <path id="Path_218" data-name="Path 218" d="M4051.273,476.8c.244-.348,3.514-1.147,4.171-1.355,1.283-.4,2.267-1.163,3.768-1.381" fill="none" stroke="#fff" stroke-miterlimit="10" stroke-width="0.25"/>
      </g>
      <path id="Path_219" data-name="Path 219" d="M4036.294,445.753a22.311,22.311,0,0,1,2.806.578c1.49.319,2.135.21,3.559.442.659.107,1.48,1.273,1.48,1.273-1.3.734-3.085,1.07-3.9,3.658,0,0-.6-.057-1.362.744-.919.959-.406,1.248-1.18,2.407-.363.543-.387.348-2.118,1.473a2.753,2.753,0,0,0-1.123,2.483,4.948,4.948,0,0,0,1.316,2.745,14.223,14.223,0,0,0-6.228,1.75c-.232.143.032-3.129.57-3.991,1.095-1.757,1.811-2.429,1.987-3.336.358-1.838-.187-2.07.163-3.413.641-2.459,1.3-2.539,1.826-4.156C4034.624,446.773,4034.744,445.578,4036.294,445.753Z" fill="url(#linear-gradient-2)"/>
      <path id="Path_220" data-name="Path 220" d="M4024.909,467.326a2.867,2.867,0,0,0,.712,3.07c.335.368-1.251,1.206-1.428,1.622-.387.906,1.561,1.742,3.118,2.3a2.973,2.973,0,0,1,.774.446c-.512.519-2.649,2.143-3.705,1.878-2.295-.579-4.816-2.37-5.168-2.154-.232.144.2-2.516.738-3.379a7.821,7.821,0,0,1,2.135-2.667C4022.662,468.051,4025.683,466.167,4024.909,467.326Z" fill="url(#linear-gradient-3)"/>
    </g>
    <g id="Group_23" data-name="Group 23" transform="translate(-2504)">
      <path id="Path_221" data-name="Path 221" d="M3896.035,487.984a3.044,3.044,0,0,1-.647-.576c-.288-.356-.187-.433-.451-.794-.332-.453-.532-.386-.8-.805-.283-.436-.237-.769-.364-.778-.177-.013-.465.621-.526,1.282-.064.682.14,1.125-.172,1.5a3.26,3.26,0,0,0-.262.27c-.247.328-.132.548-.291.822-.19.328-.441.19-.778.537-.412.423-.405,1-.482.99-.051-.008-.108-.272-.027-.537.147-.48.611-.535.989-1.016.234-.3.1-.489.38-.918.174-.266.232-.24.324-.415.25-.473-.108-.778-.027-1.373.1-.73.713-.832.658-1.418-.03-.314-.209-.3-.429-.838a5.669,5.669,0,0,1-.252-1.265c-.134-.956-.116-1.2-.343-1.374a.979.979,0,0,0-.729-.121,1.51,1.51,0,0,0-.74.406c-.183.167-.2.25-.382.368a1.342,1.342,0,0,1-.513.186c-.518.11-.708.7-1.209,1.247-.307.338-.247.131-1.588,1.045a7.14,7.14,0,0,1-1.542.956,2.948,2.948,0,0,1-1.123.253c-.01-.034.392-.138.938-.388a10.977,10.977,0,0,0,1.82-1.14c.218-.155.543-.4,1.191-.906.8-.617.953-.755.931-.921-.062-.451-1.377-.592-1.358-.691a1.556,1.556,0,0,1,.863.048c.526.129.595.3.87.264.316-.04.517-.3.81-.681.258-.335.563-.732.432-.995-.088-.178-.294-.123-.591-.417-.2-.2-.143-.256-.287-.379-.259-.22-.512-.085-1.256-.162a5.115,5.115,0,0,0-.8-.112,9.348,9.348,0,0,0-.951.222c-.535.068-.557-.151-.988-.105-.834.089-1.261.963-1.7.789-.053-.021-.175-.085-.166-.13s.19-.045.313-.061c.371-.05.492-.351.771-.55.4-.285.613.009,1.74-.165a5.161,5.161,0,0,1,.922-.159c.3,0,.481.061,1.05.1.383.027.575.04.606-.017.1-.188-.545-.9-1.375-1.155a2.471,2.471,0,0,0-1.012-.091,5.9,5.9,0,0,0-1.24.443,3.2,3.2,0,0,1-1.483.23c-.015-.053.282-.179.345-.2a5.612,5.612,0,0,1,1.161-.243c.585-.155.515-.425,1.044-.541.585-.128.992.132,1.059,0s-.319-.5-.7-.734a2.578,2.578,0,0,0-1.527-.425c-.874.058-1.061.589-2.038.6a1.65,1.65,0,0,1-.76-.12c0-.045.432-.012.973-.124a14.073,14.073,0,0,0,1.41-.536,2.9,2.9,0,0,1,1.7.189,5.691,5.691,0,0,1,2.1,1.418c.834.788,1.169,1.4,1.578,1.3.215-.053.328-.271.411-.43a3.143,3.143,0,0,0-.353-2.6c-.3-.612-.437-.618-.809-1.418-.287-.616-.224-.655-.462-1.071-.356-.625-.59-.7-.924-1.339a2.546,2.546,0,0,1-.332-.922,11.42,11.42,0,0,0,.743,1.153c.07.087.5.629.61.565s-.253-.54-.246-1.253a1.658,1.658,0,0,1,.33-1.1c.065.014-.077.54-.054,1.339a6.626,6.626,0,0,0,.377,1.954c.145.413.628,1.783,1.132,1.746.237-.017.25-.331.718-.8a5.13,5.13,0,0,1,1.167-.753c1.2-.661,1.282-.557,1.611-.884.482-.479.668-1.062.815-1.012.086.03.08.247.08.263-.012.369-.342.692-1.132,1.169-.974.588-1.135.5-1.768.922a2.739,2.739,0,0,0-1.272,1.326c-.306.945.273,2.178.774,2.2.547.027,1.042-1.386,1.213-1.875a7.267,7.267,0,0,0,.344-1.575,16.945,16.945,0,0,0-.031-3.143c-.1-1.644-.151-1.968.1-2.427a2.594,2.594,0,0,1,1.417-1.149,4.309,4.309,0,0,0-.738.712,3.393,3.393,0,0,0-.6,1.617,11.29,11.29,0,0,0,.135,2.715,12.72,12.72,0,0,1,.091,1.9c-.184,1.314-.812,1.671-.755,2.914a3.911,3.911,0,0,0,.212,1.092,2.555,2.555,0,0,0,2.555,1.984c.706.068.825-.116,1.443.015.635.134.631.354,1.222.523.454.13.531.022,2.2-.1a5.98,5.98,0,0,0,1.62-.163c.517-.185.7-.407,1.118-.371a1.331,1.331,0,0,1,.958.571,1.888,1.888,0,0,0-.848-.341,2.643,2.643,0,0,0-1.064.293,8.193,8.193,0,0,1-1.295.227,9.176,9.176,0,0,1-2.48.151c-.491-.061-.77-.16-.8-.1-.04.1.624.537,1.39.769.5.152.585.079,1.358.271.754.188.69.262,1.074.313.966.13,1.665-.3,1.761-.111.046.089-.074.264-.208.356-.415.286-1.123-.114-1.153-.045s.617.349.581.472c-.021.073-.279.071-.522.039a5.98,5.98,0,0,1-1.752-.747c-.713-.3-.724-.075-1.5-.4-.848-.353-.72-.573-1.3-.693-.456-.094-1.1-.072-1.635-.2a2.277,2.277,0,0,1-.308-.1,4.031,4.031,0,0,1-.5-.263,4.26,4.26,0,0,0-.483-.215c-.747-.3-1.261-.509-1.569-.316-.276.172-.278.623-.283,1.527a6.5,6.5,0,0,0,.127,1.524,3.221,3.221,0,0,0,.965,2.105c.38.275.464.084,1.408.553a2.207,2.207,0,0,1,1,.841c.071.123.181.351.139.382s-.158-.092-.313-.239c-.621-.593-.649-.63-.732-.7-.429-.373-1.048-.57-1.144-.445s.243.669.707,1a2.989,2.989,0,0,1,.8.589c.12.148.27.38.219.433C3896.6,488.388,3896.165,488.077,3896.035,487.984Z" fill="#889598"/>
      <path id="Path_222" data-name="Path 222" d="M3901.536,459.876a3.02,3.02,0,0,1-.4-.768c-.143-.435-.021-.471-.14-.9-.149-.542-.36-.55-.466-1.038-.111-.508.051-.8-.064-.857-.161-.075-.656.416-.948,1.012-.3.615-.268,1.1-.693,1.34a3.654,3.654,0,0,0-.34.159c-.347.22-.318.466-.564.666-.294.239-.479.022-.918.226-.535.249-.734.793-.8.754-.045-.025,0-.292.166-.512.307-.4.76-.282,1.285-.6.325-.2.265-.422.681-.724.257-.187.3-.141.45-.272.4-.354.175-.766.462-1.294.351-.647.962-.524,1.118-1.092.084-.3-.089-.351-.1-.935a5.681,5.681,0,0,1,.213-1.273c.214-.941.318-1.163.167-1.406a.971.971,0,0,0-.639-.371,1.5,1.5,0,0,0-.835.116,2.664,2.664,0,0,1-.488.208,1.345,1.345,0,0,1-.546-.007c-.523-.082-.909.4-1.572.736-.407.208-.278.035-1.856.413a7.134,7.134,0,0,1-1.781.347,2.982,2.982,0,0,1-1.14-.162c0-.035.416.011,1.015-.03a11,11,0,0,0,2.106-.42c.259-.067.651-.186,1.435-.424.965-.293,1.159-.368,1.2-.531.1-.443-1.077-1.042-1.024-1.127a1.557,1.557,0,0,1,.79.35c.445.308.45.491.72.556.309.075.589-.1,1-.349.36-.222.787-.484.758-.776-.02-.2-.231-.22-.405-.6-.117-.255-.042-.291-.134-.456-.164-.3-.448-.262-1.117-.6-.46-.232-.415-.294-.711-.39a9.544,9.544,0,0,0-.968-.13c-.524-.126-.467-.338-.886-.448-.812-.213-1.521.453-1.867.135-.042-.039-.133-.142-.109-.18s.194.025.315.053c.365.085.584-.153.916-.239.477-.125.57.225,1.685.462a5.13,5.13,0,0,1,.919.179c.279.11.428.228.945.468.348.162.522.242.572.2.163-.139-.191-1.033-.875-1.568a2.494,2.494,0,0,0-.914-.445,5.986,5.986,0,0,0-1.317-.025,3.183,3.183,0,0,1-1.468-.311c.005-.055.327-.067.4-.07a5.621,5.621,0,0,1,1.171.186c.6.062.632-.215,1.168-.136.593.088.881.476.989.379s-.121-.581-.4-.936a2.571,2.571,0,0,0-1.276-.939c-.838-.257-1.2.174-2.118-.165a1.649,1.649,0,0,1-.668-.381c.017-.042.408.142.954.229a13.884,13.884,0,0,0,1.508,0,2.9,2.9,0,0,1,1.52.779,5.687,5.687,0,0,1,1.462,2.072c.5,1.033.6,1.721,1.016,1.771a.731.731,0,0,0,.537-.256,3.138,3.138,0,0,0,.592-2.555c-.062-.679-.189-.733-.253-1.613-.049-.678.023-.692-.051-1.166-.112-.71-.3-.864-.389-1.579a2.563,2.563,0,0,1,.017-.98,11.342,11.342,0,0,0,.285,1.342c.034.106.249.767.37.745s-.045-.6.215-1.259c.219-.56.64-.944.7-.908s-.264.478-.526,1.233a6.623,6.623,0,0,0-.34,1.961c-.011.437-.047,1.889.438,2.034.228.068.351-.221.954-.49a5.178,5.178,0,0,1,1.358-.29c1.356-.192,1.4-.065,1.82-.254.621-.277,1-.756,1.121-.657.07.058-.012.259-.019.274-.142.34-.565.526-1.473.691-1.119.205-1.237.062-1.98.234a2.742,2.742,0,0,0-1.659.789c-.622.775-.519,2.134-.059,2.335.5.22,1.466-.926,1.8-1.322a7.19,7.19,0,0,0,.881-1.351,16.947,16.947,0,0,0,1.087-2.949c.493-1.571.556-1.893.958-2.232a2.6,2.6,0,0,1,1.733-.571,4.293,4.293,0,0,0-.943.4,3.391,3.391,0,0,0-1.131,1.3,11.333,11.333,0,0,0-.838,2.586,12.606,12.606,0,0,1-.589,1.81c-.638,1.162-1.352,1.273-1.74,2.455a3.914,3.914,0,0,0-.189,1.1,2.557,2.557,0,0,0,1.685,2.762c.635.314.812.184,1.343.526.546.351.465.554.957.922.378.283.489.209,2.095.692a6.035,6.035,0,0,0,1.572.423c.549.01.8-.131,1.177.049a1.332,1.332,0,0,1,.693.874,1.888,1.888,0,0,0-.671-.62,2.647,2.647,0,0,0-1.1-.1,8.185,8.185,0,0,1-1.29-.248,9.136,9.136,0,0,1-2.373-.739c-.437-.231-.663-.423-.708-.372-.075.083.392.724,1.025,1.213.413.319.52.281,1.174.735.639.443.552.49.893.674.857.464,1.662.312,1.686.521.011.1-.163.221-.321.259-.49.12-1.01-.505-1.062-.451s.453.545.376.647c-.046.061-.287-.033-.5-.149-.678-.363-.809-.784-1.373-1.32s-.65-.327-1.261-.9c-.667-.63-.469-.792-.965-1.107-.393-.251-1-.46-1.457-.769a2.263,2.263,0,0,1-.254-.2,4.007,4.007,0,0,1-.374-.423,4.272,4.272,0,0,0-.376-.373c-.591-.547-1-.923-1.355-.853-.318.063-.48.485-.8,1.328a6.456,6.456,0,0,0-.423,1.47,3.216,3.216,0,0,0,.155,2.31c.258.392.4.244,1.12,1.017a2.2,2.2,0,0,1,.634,1.14c.022.14.044.393-.006.406s-.115-.141-.207-.334c-.371-.775-.384-.819-.436-.917-.269-.5-.776-.9-.911-.822s-.01.712.306,1.186a2.987,2.987,0,0,1,.535.833c.06.181.117.451.051.483C3901.92,460.455,3901.624,460.009,3901.536,459.876Z" fill="#798f98"/>
      <path id="Path_223" data-name="Path 223" d="M3843,481.278a3.051,3.051,0,0,1-.4-.768c-.144-.435-.021-.471-.14-.9-.15-.542-.361-.55-.467-1.038-.11-.508.052-.8-.064-.857-.161-.075-.655.416-.947,1.012-.3.615-.268,1.1-.693,1.34a3.649,3.649,0,0,0-.341.159c-.347.22-.317.466-.563.666-.294.239-.48.021-.918.226-.535.249-.735.793-.8.754-.045-.026,0-.292.165-.512.308-.4.761-.282,1.285-.6.325-.2.265-.423.681-.724.258-.187.3-.142.451-.273.4-.353.175-.765.462-1.293.351-.647.962-.525,1.118-1.092.083-.3-.09-.351-.1-.935a5.623,5.623,0,0,1,.213-1.273c.214-.942.318-1.163.167-1.406a.98.98,0,0,0-.639-.372,1.511,1.511,0,0,0-.836.117,2.621,2.621,0,0,1-.487.208,1.361,1.361,0,0,1-.546-.007c-.523-.082-.909.4-1.573.736-.407.207-.277.035-1.855.413a7.143,7.143,0,0,1-1.782.347,2.971,2.971,0,0,1-1.139-.162c0-.035.415.01,1.015-.03a11,11,0,0,0,2.106-.42c.259-.067.651-.186,1.435-.424.965-.294,1.159-.368,1.2-.531.1-.444-1.078-1.043-1.024-1.128a1.562,1.562,0,0,1,.789.351c.446.308.451.49.72.556.31.075.59-.1,1-.349.36-.222.786-.485.757-.777-.019-.2-.231-.22-.405-.6-.116-.255-.042-.291-.133-.457-.165-.3-.448-.261-1.117-.6-.461-.231-.416-.294-.711-.389a9.633,9.633,0,0,0-.968-.13c-.524-.126-.467-.339-.887-.449-.811-.212-1.52.454-1.866.136-.042-.039-.134-.142-.109-.181s.194.026.314.054c.365.085.585-.153.917-.24.476-.124.57.226,1.684.463a5.111,5.111,0,0,1,.919.179c.28.11.428.227.946.468.347.162.522.242.572.2.163-.138-.192-1.032-.876-1.567a2.479,2.479,0,0,0-.914-.445,5.979,5.979,0,0,0-1.316-.025,3.177,3.177,0,0,1-1.468-.312c.005-.054.327-.066.4-.069a5.606,5.606,0,0,1,1.171.185c.6.063.633-.214,1.169-.135.593.088.881.475.988.379s-.12-.581-.4-.937a2.581,2.581,0,0,0-1.276-.938c-.838-.257-1.2.173-2.118-.165a1.624,1.624,0,0,1-.668-.382c.017-.041.408.143.954.23a14.139,14.139,0,0,0,1.508,0,2.888,2.888,0,0,1,1.519.779,5.694,5.694,0,0,1,1.463,2.072c.5,1.033.6,1.721,1.016,1.771a.736.736,0,0,0,.537-.256,3.142,3.142,0,0,0,.592-2.555c-.062-.679-.19-.733-.253-1.613-.05-.678.023-.692-.052-1.166-.111-.71-.3-.864-.388-1.58a2.527,2.527,0,0,1,.017-.979,11.308,11.308,0,0,0,.285,1.342c.034.106.249.767.369.745s-.044-.6.215-1.259c.22-.561.641-.944.7-.908s-.264.478-.526,1.233a6.59,6.59,0,0,0-.341,1.961c-.01.437-.046,1.889.438,2.033.229.069.351-.22.954-.489a5.189,5.189,0,0,1,1.358-.29c1.357-.192,1.4-.066,1.82-.254.622-.277,1-.757,1.122-.657.069.058-.013.259-.019.274-.142.34-.565.526-1.473.691-1.119.2-1.238.062-1.98.234a2.745,2.745,0,0,0-1.66.789c-.621.775-.518,2.133-.059,2.335.5.22,1.466-.926,1.8-1.322a7.23,7.23,0,0,0,.882-1.351,16.923,16.923,0,0,0,1.086-2.949c.493-1.571.557-1.893.958-2.232a2.6,2.6,0,0,1,1.733-.571,4.206,4.206,0,0,0-.942.4,3.384,3.384,0,0,0-1.132,1.3,11.326,11.326,0,0,0-.837,2.586,12.622,12.622,0,0,1-.589,1.81c-.638,1.162-1.352,1.273-1.741,2.455a3.99,3.99,0,0,0-.189,1.1,2.557,2.557,0,0,0,1.685,2.762c.636.313.812.184,1.344.526s.465.554.957.922c.378.283.488.209,2.095.692a5.989,5.989,0,0,0,1.572.422c.548.011.8-.13,1.177.05a1.337,1.337,0,0,1,.693.873,1.9,1.9,0,0,0-.672-.619,2.625,2.625,0,0,0-1.1-.1,8.333,8.333,0,0,1-1.291-.248,9.169,9.169,0,0,1-2.372-.739c-.438-.231-.663-.423-.709-.372-.074.083.393.724,1.026,1.213.413.318.519.281,1.173.735.639.443.553.49.894.674.856.464,1.662.312,1.685.521.012.1-.163.22-.32.259-.49.119-1.01-.506-1.062-.451s.453.545.376.647c-.046.06-.287-.033-.5-.149-.677-.363-.809-.784-1.372-1.32s-.651-.328-1.261-.9c-.667-.631-.47-.792-.965-1.107-.393-.251-1-.46-1.458-.769a2.519,2.519,0,0,1-.254-.2,3.911,3.911,0,0,1-.373-.424,4.575,4.575,0,0,0-.376-.372c-.591-.547-1-.923-1.355-.853-.318.063-.481.485-.806,1.328a6.507,6.507,0,0,0-.423,1.47,3.221,3.221,0,0,0,.156,2.31c.258.392.4.244,1.119,1.017a2.2,2.2,0,0,1,.635,1.14c.022.14.044.392-.007.406s-.115-.141-.207-.334c-.37-.775-.383-.82-.435-.917-.269-.5-.777-.9-.911-.822s-.011.711.3,1.186a2.952,2.952,0,0,1,.536.833c.06.181.117.451.051.483C3843.39,481.857,3843.094,481.411,3843,481.278Z" fill="#254f74"/>
      <path id="Path_224" data-name="Path 224" d="M3869.254,460.847a3.074,3.074,0,0,1,.113-.859c.132-.438.253-.4.4-.819.189-.53.021-.657.214-1.118.2-.479.5-.628.44-.738-.089-.154-.776-.036-1.357.285-.6.33-.852.747-1.336.7a3.6,3.6,0,0,0-.371-.065c-.41-.019-.527.2-.843.221-.378.027-.405-.257-.882-.342-.581-.1-1.057.228-1.09.158-.022-.047.164-.242.43-.324.479-.148.785.2,1.4.247.378.026.459-.193.973-.2.318-.005.328.057.525.035.532-.059.583-.526,1.121-.794.659-.328,1.089.123,1.542-.252.243-.2.128-.339.453-.825a5.628,5.628,0,0,1,.9-.92c.716-.648.928-.77.944-1.055a.978.978,0,0,0-.31-.671,1.5,1.5,0,0,0-.751-.384,2.769,2.769,0,0,1-.519-.11,1.349,1.349,0,0,1-.442-.319c-.382-.368-.973-.2-1.711-.3-.452-.064-.247-.131-1.757-.727a7.137,7.137,0,0,1-1.657-.739,2.945,2.945,0,0,1-.84-.787c.022-.027.334.247.848.558a10.915,10.915,0,0,0,1.966.865c.25.094.639.222,1.418.477.959.314,1.16.364,1.285.253.338-.3-.284-1.473-.191-1.511.051-.022.286.311.445.74.188.507.088.66.271.868.21.239.538.259,1.018.288.421.025.921.055,1.065-.2.1-.174-.063-.313.013-.724.051-.275.132-.262.153-.45.036-.338-.217-.471-.572-1.131-.244-.454-.171-.479-.358-.727-.261-.344-.441-.349-.718-.662-.357-.4-.188-.545-.469-.876-.542-.64-1.5-.5-1.606-.961-.012-.056-.027-.193.015-.21s.144.132.227.224c.25.279.566.21.887.33.462.172.338.512,1.114,1.346.376.4.451.373.65.674.166.25.22.432.5.926.192.332.289.5.354.492.213-.021.436-.956.183-1.786a2.456,2.456,0,0,0-.493-.889c-.33-.381-.519-.359-1.063-.777-.6-.464-1.076-1.034-1.023-1.1.035-.041.306.134.363.171.462.3.528.542.853.824.457.4.641.187,1.034.56.435.412.448.9.592.877s.235-.544.213-.994a2.577,2.577,0,0,0-.506-1.5c-.539-.691-1.084-.548-1.64-1.351a1.645,1.645,0,0,1-.327-.7c.037-.024.252.351.649.736.537.521.829.5,1.235.865a2.89,2.89,0,0,1,.8,1.51,5.674,5.674,0,0,1,.008,2.536c-.183,1.133-.5,1.752-.185,2.033a.736.736,0,0,0,.587.1c1.018-.12,1.686-1.288,1.952-1.752.338-.591.265-.709.718-1.466.349-.584.417-.554.627-.984.317-.646.248-.882.589-1.517a2.546,2.546,0,0,1,.576-.792,11.4,11.4,0,0,0-.537,1.263c-.033.106-.236.77-.124.821s.3-.512.9-.907a1.66,1.66,0,0,1,1.092-.343c.025.062-.49.24-1.138.708a6.626,6.626,0,0,0-1.405,1.41c-.259.351-1.122,1.52-.808,1.916.147.187.414.021,1.062.147a5.159,5.159,0,0,1,1.278.543c1.221.621,1.181.747,1.636.836.668.13,1.255-.044,1.295.106.024.088-.159.205-.172.214-.312.2-.764.106-1.6-.28-1.034-.475-1.049-.66-1.756-.945a2.736,2.736,0,0,0-1.811-.307c-.954.278-1.65,1.449-1.389,1.878.285.468,1.732.083,2.232-.05a7.206,7.206,0,0,0,1.5-.6,16.945,16.945,0,0,0,2.583-1.791c1.3-1,1.542-1.231,2.066-1.278a2.592,2.592,0,0,1,1.746.528,4.2,4.2,0,0,0-1-.211,3.388,3.388,0,0,0-1.673.415,11.344,11.344,0,0,0-2.17,1.637,12.688,12.688,0,0,1-1.521,1.143c-1.19.586-1.838.267-2.835,1.012a3.921,3.921,0,0,0-.784.789,2.932,2.932,0,0,0-.664,1.423,2.963,2.963,0,0,0,.458,1.806c.34.621.559.616.8,1.2s.062.72.254,1.3c.148.449.28.452,1.318,1.769.747.948.743,1.029,1.045,1.249.443.323.732.354.935.716a1.332,1.332,0,0,1,.066,1.113,1.9,1.9,0,0,0-.194-.893c-.193-.332-.439-.408-.841-.715a8.3,8.3,0,0,1-.914-.944,9.175,9.175,0,0,1-1.519-1.967c-.225-.441-.3-.727-.367-.711a2.7,2.7,0,0,0,.144,1.581c.156.5.264.529.539,1.276.269.73.171.718.344,1.065.436.871,1.182,1.209,1.082,1.394-.048.088-.26.087-.411.028-.47-.183-.537-.994-.611-.979s.058.706-.064.745c-.072.024-.216-.191-.326-.409a6,6,0,0,1-.366-1.87c-.152-.758-.344-.641-.513-1.464-.184-.9.07-.917-.154-1.46-.179-.431-.56-.953-.753-1.466a2.5,2.5,0,0,1-.094-.308,3.906,3.906,0,0,1-.063-.562,4.259,4.259,0,0,0-.094-.52c-.17-.787-.287-1.33-.619-1.476-.3-.131-.673.12-1.423.624a6.479,6.479,0,0,0-1.19.961,3.22,3.22,0,0,0-1.2,1.981c-.014.469.191.431.333,1.475a2.2,2.2,0,0,1-.135,1.3c-.062.127-.189.347-.238.329s-.013-.182.022-.393c.142-.847.157-.891.17-1,.067-.564-.116-1.186-.274-1.2s-.417.577-.431,1.147a2.935,2.935,0,0,1-.04.989c-.054.183-.163.437-.235.425C3869.237,461.541,3869.25,461.006,3869.254,460.847Z" fill="#0063b0" stroke="#818386" stroke-miterlimit="10" stroke-width="1"/>
      <path id="Path_225" data-name="Path 225" d="M3874,486.115c.55.233.773,3.613,1.8,3.8,1.167.216,3.028-2.415,4.385-2.432,3.821-.046.037-2.787,1.322-2.384,1.023.321,4.279-3.9,6.716-3.532" fill="none" stroke="#fff" stroke-miterlimit="10" stroke-width="0.5"/>
      <path id="Path_226" data-name="Path 226" d="M3871.2,483.783a31.5,31.5,0,0,0,2.789-2.853c1.405-1.637,1.484-2.078,2.853-3.543,1.492-1.6,1.8-1.5,2.165-2.329.793-1.794-.279-3.094.492-3.838s2.085.274,3.937.066c1.233-.138,13.845-4.529,12.763-10.818" fill="none" stroke="#fff" stroke-miterlimit="10" stroke-width="0.5"/>
      <path id="Path_227" data-name="Path 227" d="M3886.454,479.585" fill="none" stroke="#fff" stroke-miterlimit="10" stroke-width="1"/>
      <path id="Path_228" data-name="Path 228" d="M3849.665,462.394c.92.47,3.1,4.4,4.757,4.634,1.071.152,6.354-.414,10.121,3.259,2.4,2.341,5.65,3.121,6.658,3.573,3.845,1.72,9.356,8.461,13.427,6.183" fill="none" stroke="#fff" stroke-miterlimit="10" stroke-width="0.5"/>
      <path id="Path_229" data-name="Path 229" d="M3881.51,465.381a19.412,19.412,0,0,1,3.754,2.947c1,1.124.152,1.381,1.19,3.123.516.866,3.941,4.047,5.067,5.464" fill="none" stroke="#fff" stroke-miterlimit="10" stroke-width="1"/>
      <path id="Path_230" data-name="Path 230" d="M3893.9,448.277c-1.162-.293-4.99,2.232-6.839,2.816-1.123.355-1.438,3.3-2.954,4.39-1.969,1.418-4.534.876-5.052,2.072-.426.981-1.089,5.767-2.684,8.392-3.137,5.163-6.744,4.235-7.331,4.026" fill="none" stroke="#fff" stroke-miterlimit="10" stroke-width="0.5"/>
      <path id="Path_231" data-name="Path 231" d="M3896.511,451.11c-1.838-1.586-4.99-1.067-7.8-2.1-1.8-.666-2.352,3.894-5.052,2.161-1.832-1.175.143-2.487-1.459-3.742-.752-.589-1.435-1.4-1.965-1.252" fill="none" stroke="#fff" stroke-miterlimit="10" stroke-width="0.5"/>
      <path id="Path_232" data-name="Path 232" d="M3909.917,458.407c-1.045-.184.614,4.8-.525,6.324-3.157,4.217-9.319,1.842-10.759,2.768-2.018,1.3-2.4,3.992-2.723,5.014" fill="none" stroke="#fff" stroke-miterlimit="10" stroke-width="0.5"/>
      <path id="Path_233" data-name="Path 233" d="M3843.573,462.959a8.555,8.555,0,0,0,1.972-3.984c.911-2.625,2.574-4.026,4.291-3.3,1.528.643.852,2.822,2.88,3.988,1.256.722,2.1.386,2.552,1.334a27.618,27.618,0,0,1,.586,2.848c.066.206-.227,2.116,1.047.757" fill="none" stroke="#fff" stroke-miterlimit="10" stroke-width="0.5"/>
      <path id="Path_234" data-name="Path 234" d="M3835.093,466.337c-.517-.5,1.014-3.626.764-4.7-.371-1.592,2.267-4.409,1.244-6.154-1.23-2.1-1.8-6.488-1.085-7.246" fill="none" stroke="#fff" stroke-miterlimit="10" stroke-width="0.5"/>
      <path id="Path_235" data-name="Path 235" d="M3842.006,463.039c.372.283-1.469,6.378,2.882,13.9,1.437,2.486.8,3.852,2.289,5.761.849,1.085,1.261.722,3.545,2.658,1.063.9.808,5.575,1.315,6.136" fill="none" stroke="#fff" stroke-miterlimit="10" stroke-width="0.5"/>
      <path id="Path_236" data-name="Path 236" d="M3900.678,451.4c-.525.621-1.342,1.56-2.4,2.649-2.143,2.212-7.988,3.62-13.653,5.166-4.612,1.257-12.472-.613-14.264,2.046" fill="none" stroke="#fff" stroke-miterlimit="10" stroke-width="0.5"/>
      <path id="Path_237" data-name="Path 237" d="M3902.013,460.411c.035.906-2.8,2.306-3.048,3.9-.409,2.639-4.1,1.153-5.115,2.216-1.62,1.7-1.409,2.929-2.068,4.6-.23.583-1.891,1.489-1.8,1.879" fill="none" stroke="#fff" stroke-miterlimit="10" stroke-width="0.5"/>
      <path id="Path_238" data-name="Path 238" d="M3859.714,446.737a7.5,7.5,0,0,1,.719,2.022c.2,1.116-.11,1.162.035,2.262.181,1.381.7,1.473.788,2.707.1,1.284-.4,1.954-.137,2.125.369.238,1.752-.8,2.673-2.159.95-1.406,1.035-2.61,2.159-3.05a8.8,8.8,0,0,0,.891-.274c.927-.42.939-1.034,1.611-1.44.8-.485,1.184.111,2.33-.239,1.4-.428,2.075-1.7,2.228-1.577.1.079-.089.719-.583,1.2-.889.866-1.963.432-3.358,1.028-.865.369-.8.945-1.919,1.542-.7.37-.79.244-1.2.514-1.107.73-.692,1.819-1.576,3.016-1.084,1.467-2.542.957-3.119,2.3-.31.719.1.891-.069,2.33a14.005,14.005,0,0,1-.959,3.051c-.848,2.237-1.179,2.745-.891,3.392a2.41,2.41,0,0,0,1.439,1.131,3.717,3.717,0,0,0,2.091,0,6.686,6.686,0,0,1,1.268-.342,3.324,3.324,0,0,1,1.336.2c1.256.38,2.368-.666,4.113-1.268,1.069-.369.693.01,4.7-.377,2.463-.238,3.1-.429,4.489-.24a7.385,7.385,0,0,1,2.742.789c-.019.086-1.016-.168-2.5-.275a27.29,27.29,0,0,0-5.312.309c-.658.074-1.661.232-3.667.548-2.468.389-2.97.5-3.118.891-.4,1.054,2.285,2.929,2.124,3.119-.088.1-.983-.365-1.816-1.131-.988-.908-.938-1.358-1.576-1.611-.735-.29-1.48.036-2.571.514-.958.42-2.095.919-2.125,1.645-.019.495.492.62.789,1.611.2.665,0,.727.171,1.165.3.788,1.01.8,2.536,1.851,1.05.726.919.864,1.611,1.2a23.232,23.232,0,0,0,2.33.652c1.243.488,1.03.991,2.022,1.4,1.918.8,3.886-.591,4.627.308.089.109.279.394.206.48s-.468-.13-.754-.24c-.867-.334-1.487.176-2.331.274-1.212.141-1.321-.749-3.975-1.713a12.757,12.757,0,0,1-2.194-.754c-.648-.366-.972-.706-2.159-1.474-.8-.517-1.2-.773-1.336-.685-.447.285.116,2.6,1.61,4.146a6.134,6.134,0,0,0,2.091,1.4c1.157.469,1.55.205,3.221.515,1.855.342,3.542,1.068,3.5,1.268-.03.132-.825.051-.994.034a13.9,13.9,0,0,1-2.81-.857c-1.455-.36-1.625.31-2.913-.068-1.425-.419-2-1.469-2.3-1.268s.095,1.465.651,2.433a6.385,6.385,0,0,0,2.81,2.741c1.968.917,3.008-.014,5.141,1.131a4.057,4.057,0,0,1,1.508,1.166c-.056.1-.952-.489-2.262-.891-1.772-.544-2.393-.168-3.7-.514a7.174,7.174,0,0,1-3.462-2.434,14.122,14.122,0,0,1-2.879-5.586c-.872-2.707-.874-4.428-1.884-4.7a1.818,1.818,0,0,0-1.406.445c-2.11,1.412-2.267,4.744-2.33,6.066-.08,1.687.214,1.864.069,4.044-.113,1.682-.295,1.692-.275,2.879.031,1.781.449,2.225.412,4.01a6.346,6.346,0,0,1-.377,2.4,28.409,28.409,0,0,0-.24-3.393c-.047-.271-.348-1.966-.651-1.953-.282.011-.095,1.475-.96,3.015-.73,1.3-1.9,2.1-2.022,1.988s.811-1.082,1.714-2.844a16.485,16.485,0,0,0,1.507-4.7c.177-1.069.762-4.62-.377-5.141-.536-.246-.937.42-2.508.874a12.833,12.833,0,0,1-3.433.245c-3.4.005-3.448-.318-4.553,0-1.62.467-2.718,1.512-2.977,1.226-.151-.166.12-.631.14-.665.466-.787,1.567-1.1,3.853-1.191,2.815-.117,3.057.273,4.938.105,1.675-.15,3.2-.286,4.343-1.366,1.791-1.689,2-5.057.946-5.709-1.157-.712-3.916,1.769-4.869,2.627a17.861,17.861,0,0,0-2.626,3.012,41.971,41.971,0,0,0-3.678,6.865c-1.748,3.685-2.015,4.454-3.117,5.148a6.429,6.429,0,0,1-4.448.806,10.5,10.5,0,0,0,2.452-.666,8.407,8.407,0,0,0,3.222-2.8c1.256-1.662,1.364-2.548,2.942-6.059a31.484,31.484,0,0,1,2.066-4.238c1.965-2.634,3.755-2.661,5.114-5.429a9.764,9.764,0,0,0,.84-2.626,6.335,6.335,0,0,0-3.187-7.355c-1.453-.988-1.929-.73-3.117-1.752-1.219-1.048-.95-1.52-2.031-2.591-.831-.824-1.128-.682-4.9-2.417-2.717-1.249-2.8-1.431-3.712-1.576-1.343-.214-2.016.044-2.872-.526a3.3,3.3,0,0,1-1.4-2.381,4.714,4.714,0,0,0,1.436,1.751c.8.516,1.429.4,2.662.63a20.492,20.492,0,0,1,3.082,1.051,22.688,22.688,0,0,1,5.568,2.627c1,.718,1.482,1.265,1.612,1.156.21-.177-.715-1.911-2.1-3.328-.9-.923-1.178-.868-2.627-2.206-1.415-1.307-1.188-1.392-1.961-1.961-1.943-1.432-3.971-1.336-3.958-1.857.007-.249.476-.485.876-.525,1.243-.126,2.3,1.587,2.452,1.471s-.925-1.493-.7-1.716c.134-.133.692.179,1.181.536,1.538,1.124,1.717,2.2,2.916,3.711s1.484,1.027,2.784,2.651c1.42,1.776.88,2.1,1.988,3.049.879.75,2.308,1.471,3.313,2.385a5.836,5.836,0,0,1,.555.574,9.935,9.935,0,0,1,.772,1.167,10.733,10.733,0,0,0,.794,1.043c1.264,1.545,2.134,2.609,3.032,2.558.8-.046,1.347-1.025,2.433-2.982a16.043,16.043,0,0,0,1.543-3.461c.654-2.182,1.21-4.039.411-5.724-.5-1.05-.908-.735-2.4-2.878a5.453,5.453,0,0,1-1.165-3.016c-.007-.351.388-.607.548-.1.643,2.028.659,2.142.754,2.4.488,1.322,1.595,2.488,1.953,2.33s.271-1.742-.342-3.015a7.359,7.359,0,0,1-1.028-2.228c-.086-.465-.133-1.147.04-1.2C3858.969,445.185,3859.543,446.381,3859.714,446.737Z" fill="#0055a4" stroke="#edeeef" stroke-miterlimit="10" stroke-width="1"/>
      <path id="Path_239" data-name="Path 239" d="M3856,467.576c.1-.509,1.406-1.087,2.356-.539a1.843,1.843,0,0,1,.673,2.424c-.667,1.148-2.365.645-2.491.605a.689.689,0,0,1-.486-.868c.038-.321-.488-.211-.386-.65C3855.744,468.192,3855.936,467.87,3856,467.576Z" fill="#04b7df"/>
      <path id="Path_240" data-name="Path 240" d="M3892.126,479.057c.042-.209.577-.446.967-.221a.757.757,0,0,1,.276.995c-.273.471-.971.264-1.022.248a.282.282,0,0,1-.2-.356c.015-.132-.2-.087-.159-.267C3892.023,479.31,3892.1,479.178,3892.126,479.057Z" fill="#96999c"/>
      <path id="Path_241" data-name="Path 241" d="M3900.682,450.317c.042-.209.577-.446.967-.221a.757.757,0,0,1,.276.995c-.273.471-.97.264-1.022.248a.282.282,0,0,1-.2-.356c.015-.132-.2-.087-.159-.267C3900.579,450.57,3900.658,450.438,3900.682,450.317Z" fill="#96999c"/>
      <path id="Path_242" data-name="Path 242" d="M3873.742,453.254c.023-.117.322-.249.54-.124a.423.423,0,0,1,.154.556c-.153.263-.542.148-.571.139a.158.158,0,0,1-.111-.2c.008-.074-.112-.049-.089-.149C3873.684,453.395,3873.728,453.321,3873.742,453.254Z" fill="#96999c"/>
      <path id="Path_243" data-name="Path 243" d="M3842.25,472.032c.039-.2.545-.421.912-.208a.713.713,0,0,1,.261.938c-.258.445-.916.25-.965.235a.268.268,0,0,1-.188-.337c.015-.124-.189-.081-.149-.251C3842.153,472.271,3842.227,472.146,3842.25,472.032Z" fill="#96999c"/>
    </g>
    <path id="Path_244" data-name="Path 244" d="M3983.257,444.131a69.911,69.911,0,0,0-28.384-4.406c-15.775.856-25.442,6.911-28.338,8.885" transform="translate(-2504)" fill="none" stroke="#fff" stroke-miterlimit="10" stroke-width="1"/>
    <path id="Path_245" data-name="Path 245" d="M3926.113,488.475a61.841,61.841,0,0,0,26.541,4.9c14.85-.577,24.117-6.456,26.9-8.378" transform="translate(-2504)" fill="none" stroke="#fff" stroke-miterlimit="10" stroke-width="1"/>
    <text id="neuroplasticity" transform="translate(1419.789 472.126)" fill="#fff" font-size="10" font-family="SegoeUI, Segoe UI"><tspan x="0" y="0">neuroplasticity</tspan></text>
  </g>
</svg>
