<svg width="302" height="300" viewBox="0 0 302 300" fill="none" xmlns="http://www.w3.org/2000/svg">
<g clip-path="url(#clip0_180_286)">
<path d="M128.625 181.117C139.338 176.086 146.953 169.731 145.635 166.925C144.317 164.118 134.564 165.922 123.851 170.954C113.138 175.986 105.523 182.34 106.841 185.147C108.159 187.953 117.912 186.149 128.625 181.117Z" stroke="url(#paint0_linear_180_286)" stroke-width="2" stroke-miterlimit="10"/>
<path d="M143.67 151.684C145.055 148.741 137.516 142.278 126.831 137.248C116.145 132.217 106.36 130.524 104.975 133.467C103.59 136.409 111.129 142.872 121.815 147.902C132.5 152.933 142.285 154.626 143.67 151.684Z" stroke="url(#paint1_linear_180_286)" stroke-width="2" stroke-miterlimit="10"/>
<path d="M196.748 184.997C198.1 182.123 190.541 175.722 179.866 170.7C169.19 165.679 159.439 163.939 158.087 166.813C156.736 169.687 164.294 176.088 174.97 181.109C185.646 186.13 195.396 187.871 196.748 184.997Z" stroke="url(#paint2_linear_180_286)" stroke-width="2" stroke-miterlimit="10"/>
<path d="M180.467 146.919C191.149 141.911 198.794 135.686 197.542 133.015C196.29 130.345 186.615 132.24 175.933 137.248C165.251 142.257 157.607 148.482 158.859 151.152C160.111 153.822 169.785 151.927 180.467 146.919Z" stroke="url(#paint3_linear_180_286)" stroke-width="2" stroke-miterlimit="10"/>
<path d="M147.57 42.0844C155.208 42.0844 161.4 33.1744 161.4 22.1833C161.4 11.1923 155.208 2.28223 147.57 2.28223C139.931 2.28223 133.739 11.1923 133.739 22.1833C133.739 33.1744 139.931 42.0844 147.57 42.0844Z" stroke="url(#paint4_linear_180_286)" stroke-width="2" stroke-miterlimit="10"/>
<path d="M166.466 40.738C166.466 40.738 196.979 53.199 210.034 64.1766C218.638 71.4112 226.512 79.3991 221.445 84.7395C216.652 89.8061 201.156 71.0689 191.867 71.2971C186.664 71.4112 183.628 82.3203 180.684 96.2192C180.684 96.2192 167.607 88.528 151.882 87.6608C135.542 86.7707 120.616 93.8685 120.616 93.8685C114.34 73.1229 117.01 63.1039 105.485 58.6079C96.2871 55.002 82.6393 61.0499 64.2445 74.8574C51.6466 84.3059 45.5758 93.6631 39.9159 87.2728C34.7124 81.4074 46.4887 65.7513 62.5785 55.1845C88.5732 38.0906 111.487 35.0324 126.55 36.63C126.55 36.63 135.199 47.2195 143.826 48.9084C153.548 50.8026 159.3 46.4208 166.466 40.738Z" stroke="url(#paint5_linear_180_286)" stroke-width="2" stroke-miterlimit="10"/>
<path d="M40.5253 125.741C42.9629 118.502 36.4948 109.791 26.0784 106.283C15.662 102.775 5.2418 105.8 2.80423 113.039C0.366664 120.278 6.83477 128.99 17.2512 132.497C27.6675 136.005 38.0877 132.98 40.5253 125.741Z" stroke="url(#paint6_linear_180_286)" stroke-width="2" stroke-miterlimit="10"/>
<path d="M45.2796 107.402C45.2796 107.402 66.8239 82.48 81.4074 73.5793C91.0156 67.7368 101.08 62.8072 104.549 69.3343C107.813 75.4964 85.1275 84.1917 82.3659 93.0696C80.814 98.0449 90.1712 104.39 102.427 111.624C102.427 111.624 90.97 121.575 85.1275 136.204C79.0567 151.404 81.0422 167.813 81.0422 167.813C59.3838 167.151 50.7341 161.423 42.792 170.894C36.4473 178.471 37.8167 193.328 45.0286 215.169C49.9582 230.141 56.8962 238.859 49.0225 242.191C41.8106 245.249 30.7189 229.091 25.8349 210.468C17.9384 180.388 22.3431 157.68 28.6649 143.918C28.6649 143.918 41.4683 139.102 45.8045 131.457C50.7113 122.853 48.3834 116.006 45.3024 107.402H45.2796Z" stroke="url(#paint7_linear_180_286)" stroke-width="2" stroke-miterlimit="10"/>
<path d="M86.3629 283.132C92.7532 274.19 92.8957 263.341 86.6811 258.9C80.4665 254.459 70.2482 258.108 63.8579 267.05C57.4675 275.993 57.325 286.842 63.5396 291.283C69.7542 295.724 79.9725 292.075 86.3629 283.132Z" stroke="url(#paint8_linear_180_286)" stroke-width="2" stroke-miterlimit="10"/>
<path d="M70.4978 248.992C70.4978 248.992 52.9246 221.126 48.6797 204.58C45.8725 193.693 44.1152 182.625 51.3499 181.21C58.1966 179.886 59.9083 204.123 67.5994 209.35C71.9128 212.271 80.7223 205.173 91.1977 195.565C91.1977 195.565 97.3826 209.441 109.661 219.277C122.419 229.502 138.714 232.4 138.714 232.4C131.753 252.94 123.765 259.513 130.521 269.874C135.907 278.159 150.536 281.149 173.518 280.647C189.265 280.281 199.627 276.196 200.54 284.709C201.361 292.491 182.693 298.402 163.453 297.649C132.369 296.44 111.943 285.599 100.623 275.557C100.623 275.557 99.7333 261.909 93.7082 255.519C86.8843 248.33 79.6724 248.536 70.5435 248.992H70.4978Z" stroke="url(#paint9_linear_180_286)" stroke-width="2" stroke-miterlimit="10"/>
<path d="M245.314 285.929C251.495 281.44 251.269 270.592 244.81 261.699C238.351 252.806 228.105 249.236 221.925 253.724C215.744 258.213 215.97 269.061 222.429 277.954C228.888 286.847 239.134 290.418 245.314 285.929Z" stroke="url(#paint10_linear_180_286)" stroke-width="2" stroke-miterlimit="10"/>
<path d="M207.386 265.949C207.386 265.949 175.389 273.8 158.341 272.59C147.112 271.792 136.066 269.966 137.025 262.663C137.938 255.747 161.468 261.795 168.862 256.158C173.016 253.009 169.045 242.396 163.271 229.41C163.271 229.41 178.379 227.95 191.616 219.391C205.355 210.513 213.252 195.998 213.252 195.998C230.528 209.098 234.248 218.775 246.207 215.649C255.77 213.161 263.233 200.243 270.034 178.265C274.689 163.203 274.096 152.088 282.426 153.937C290.072 155.626 289.752 175.207 282.951 193.214C271.974 222.313 255.222 238.265 242.076 245.82C242.076 245.82 228.839 242.328 220.897 246.048C211.905 250.224 209.828 257.14 207.386 265.949Z" stroke="url(#paint11_linear_180_286)" stroke-width="2" stroke-miterlimit="10"/>
<path d="M284.231 127.511C294.728 124.255 301.405 115.702 299.142 108.406C296.879 101.111 286.535 97.8359 276.037 101.092C265.539 104.347 258.863 112.901 261.126 120.196C263.388 127.492 273.733 130.767 284.231 127.511Z" stroke="url(#paint12_linear_180_286)" stroke-width="2" stroke-miterlimit="10"/>
<path d="M268.026 137.847C268.026 137.847 265.173 170.666 258.554 186.413C254.195 196.774 248.9 206.656 242.282 203.393C236.029 200.312 249.311 179.977 246.367 171.145C244.701 166.192 233.404 166.535 219.254 167.858C219.254 167.858 222.723 153.092 218.889 137.801C214.918 121.94 203.689 109.776 203.689 109.776C221.651 97.634 231.989 97.2232 232.902 84.8763C233.609 75.0171 223.796 63.7885 205.173 50.3005C192.415 41.0574 181.689 38.0449 186.116 30.7417C190.179 24.0319 208.619 30.6504 223.476 42.8832C247.485 62.6474 257.208 83.6439 260.152 98.5013C260.152 98.5013 252.598 109.912 253.556 118.631C254.629 128.49 260.517 132.666 268.048 137.824L268.026 137.847Z" stroke="url(#paint13_linear_180_286)" stroke-width="2" stroke-miterlimit="10"/>
</g>
<defs>
<linearGradient id="paint0_linear_180_286" x1="104.441" y1="176.029" x2="148.078" y2="176.029" gradientUnits="userSpaceOnUse">
<stop stop-color="#FAF9FC"/>
<stop offset="0.08" stop-color="#EBC784"/>
<stop offset="0.15" stop-color="#E0A229"/>
<stop offset="0.18" stop-color="#DF982A"/>
<stop offset="0.27" stop-color="#DF7A2D"/>
<stop offset="0.36" stop-color="#DF672F"/>
<stop offset="0.42" stop-color="#DF6130"/>
<stop offset="0.56" stop-color="#B9326F"/>
<stop offset="0.7" stop-color="#6B2C8E"/>
<stop offset="1" stop-color="#181937"/>
</linearGradient>
<linearGradient id="paint1_linear_180_286" x1="102.533" y1="142.577" x2="146.078" y2="142.577" gradientUnits="userSpaceOnUse">
<stop stop-color="#FAF9FC"/>
<stop offset="0.08" stop-color="#EBC784"/>
<stop offset="0.15" stop-color="#E0A229"/>
<stop offset="0.18" stop-color="#DF982A"/>
<stop offset="0.27" stop-color="#DF7A2D"/>
<stop offset="0.36" stop-color="#DF672F"/>
<stop offset="0.42" stop-color="#DF6130"/>
<stop offset="0.56" stop-color="#B9326F"/>
<stop offset="0.7" stop-color="#6B2C8E"/>
<stop offset="1" stop-color="#181937"/>
</linearGradient>
<linearGradient id="paint2_linear_180_286" x1="155.651" y1="175.89" x2="199.196" y2="175.89" gradientUnits="userSpaceOnUse">
<stop stop-color="#FAF9FC"/>
<stop offset="0.08" stop-color="#EBC784"/>
<stop offset="0.15" stop-color="#E0A229"/>
<stop offset="0.18" stop-color="#DF982A"/>
<stop offset="0.27" stop-color="#DF7A2D"/>
<stop offset="0.36" stop-color="#DF672F"/>
<stop offset="0.42" stop-color="#DF6130"/>
<stop offset="0.56" stop-color="#B9326F"/>
<stop offset="0.7" stop-color="#6B2C8E"/>
<stop offset="1" stop-color="#181937"/>
</linearGradient>
<linearGradient id="paint3_linear_180_286" x1="156.447" y1="142.082" x2="199.97" y2="142.082" gradientUnits="userSpaceOnUse">
<stop stop-color="#FAF9FC"/>
<stop offset="0.08" stop-color="#EBC784"/>
<stop offset="0.15" stop-color="#E0A229"/>
<stop offset="0.18" stop-color="#DF982A"/>
<stop offset="0.27" stop-color="#DF7A2D"/>
<stop offset="0.36" stop-color="#DF672F"/>
<stop offset="0.42" stop-color="#DF6130"/>
<stop offset="0.56" stop-color="#B9326F"/>
<stop offset="0.7" stop-color="#6B2C8E"/>
<stop offset="1" stop-color="#181937"/>
</linearGradient>
<linearGradient id="paint4_linear_180_286" x1="131.457" y1="22.1833" x2="163.659" y2="22.1833" gradientUnits="userSpaceOnUse">
<stop stop-color="#FAF9FC"/>
<stop offset="0.08" stop-color="#EBC784"/>
<stop offset="0.15" stop-color="#E0A229"/>
<stop offset="0.18" stop-color="#DF982A"/>
<stop offset="0.27" stop-color="#DF7A2D"/>
<stop offset="0.36" stop-color="#DF672F"/>
<stop offset="0.42" stop-color="#DF6130"/>
<stop offset="0.56" stop-color="#B9326F"/>
<stop offset="0.7" stop-color="#6B2C8E"/>
<stop offset="1" stop-color="#181937"/>
</linearGradient>
<linearGradient id="paint5_linear_180_286" x1="36.4012" y1="66.8924" x2="225.348" y2="66.8924" gradientUnits="userSpaceOnUse">
<stop stop-color="#FAF9FC"/>
<stop offset="0.08" stop-color="#EBC784"/>
<stop offset="0.15" stop-color="#E0A229"/>
<stop offset="0.18" stop-color="#DF982A"/>
<stop offset="0.27" stop-color="#DF7A2D"/>
<stop offset="0.36" stop-color="#DF672F"/>
<stop offset="0.42" stop-color="#DF6130"/>
<stop offset="0.56" stop-color="#B9326F"/>
<stop offset="0.7" stop-color="#6B2C8E"/>
<stop offset="1" stop-color="#181937"/>
</linearGradient>
<linearGradient id="paint6_linear_180_286" x1="0.00294896" y1="119.403" x2="43.297" y2="119.403" gradientUnits="userSpaceOnUse">
<stop stop-color="#FAF9FC"/>
<stop offset="0.08" stop-color="#EBC784"/>
<stop offset="0.15" stop-color="#E0A229"/>
<stop offset="0.18" stop-color="#DF982A"/>
<stop offset="0.27" stop-color="#DF7A2D"/>
<stop offset="0.36" stop-color="#DF672F"/>
<stop offset="0.42" stop-color="#DF6130"/>
<stop offset="0.56" stop-color="#B9326F"/>
<stop offset="0.7" stop-color="#6B2C8E"/>
<stop offset="1" stop-color="#181937"/>
</linearGradient>
<linearGradient id="paint7_linear_180_286" x1="19.2849" y1="154.393" x2="107.128" y2="154.393" gradientUnits="userSpaceOnUse">
<stop stop-color="#FAF9FC"/>
<stop offset="0.08" stop-color="#EBC784"/>
<stop offset="0.15" stop-color="#E0A229"/>
<stop offset="0.18" stop-color="#DF982A"/>
<stop offset="0.27" stop-color="#DF7A2D"/>
<stop offset="0.36" stop-color="#DF672F"/>
<stop offset="0.42" stop-color="#DF6130"/>
<stop offset="0.56" stop-color="#B9326F"/>
<stop offset="0.7" stop-color="#6B2C8E"/>
<stop offset="1" stop-color="#181937"/>
</linearGradient>
<linearGradient id="paint8_linear_180_286" x1="56.6714" y1="275.087" x2="93.5066" y2="275.087" gradientUnits="userSpaceOnUse">
<stop stop-color="#FAF9FC"/>
<stop offset="0.08" stop-color="#EBC784"/>
<stop offset="0.15" stop-color="#E0A229"/>
<stop offset="0.18" stop-color="#DF982A"/>
<stop offset="0.27" stop-color="#DF7A2D"/>
<stop offset="0.36" stop-color="#DF672F"/>
<stop offset="0.42" stop-color="#DF6130"/>
<stop offset="0.56" stop-color="#B9326F"/>
<stop offset="0.7" stop-color="#6B2C8E"/>
<stop offset="1" stop-color="#181937"/>
</linearGradient>
<linearGradient id="paint9_linear_180_286" x1="43.9554" y1="239.429" x2="202.822" y2="239.429" gradientUnits="userSpaceOnUse">
<stop stop-color="#FAF9FC"/>
<stop offset="0.08" stop-color="#EBC784"/>
<stop offset="0.15" stop-color="#E0A229"/>
<stop offset="0.18" stop-color="#DF982A"/>
<stop offset="0.27" stop-color="#DF7A2D"/>
<stop offset="0.36" stop-color="#DF672F"/>
<stop offset="0.42" stop-color="#DF6130"/>
<stop offset="0.56" stop-color="#B9326F"/>
<stop offset="0.7" stop-color="#6B2C8E"/>
<stop offset="1" stop-color="#181937"/>
</linearGradient>
<linearGradient id="paint10_linear_180_286" x1="215.137" y1="269.845" x2="252.041" y2="269.845" gradientUnits="userSpaceOnUse">
<stop stop-color="#FAF9FC"/>
<stop offset="0.08" stop-color="#EBC784"/>
<stop offset="0.15" stop-color="#E0A229"/>
<stop offset="0.18" stop-color="#DF982A"/>
<stop offset="0.27" stop-color="#DF7A2D"/>
<stop offset="0.36" stop-color="#DF672F"/>
<stop offset="0.42" stop-color="#DF6130"/>
<stop offset="0.56" stop-color="#B9326F"/>
<stop offset="0.7" stop-color="#6B2C8E"/>
<stop offset="1" stop-color="#181937"/>
</linearGradient>
<linearGradient id="paint11_linear_180_286" x1="134.697" y1="213.229" x2="290.414" y2="213.229" gradientUnits="userSpaceOnUse">
<stop stop-color="#FAF9FC"/>
<stop offset="0.08" stop-color="#EBC784"/>
<stop offset="0.15" stop-color="#E0A229"/>
<stop offset="0.18" stop-color="#DF982A"/>
<stop offset="0.27" stop-color="#DF7A2D"/>
<stop offset="0.36" stop-color="#DF672F"/>
<stop offset="0.42" stop-color="#DF6130"/>
<stop offset="0.56" stop-color="#B9326F"/>
<stop offset="0.7" stop-color="#6B2C8E"/>
<stop offset="1" stop-color="#181937"/>
</linearGradient>
<linearGradient id="paint12_linear_180_286" x1="258.403" y1="114.308" x2="301.856" y2="114.308" gradientUnits="userSpaceOnUse">
<stop stop-color="#FAF9FC"/>
<stop offset="0.08" stop-color="#EBC784"/>
<stop offset="0.15" stop-color="#E0A229"/>
<stop offset="0.18" stop-color="#DF982A"/>
<stop offset="0.27" stop-color="#DF7A2D"/>
<stop offset="0.36" stop-color="#DF672F"/>
<stop offset="0.42" stop-color="#DF6130"/>
<stop offset="0.56" stop-color="#B9326F"/>
<stop offset="0.7" stop-color="#6B2C8E"/>
<stop offset="1" stop-color="#181937"/>
</linearGradient>
<linearGradient id="paint13_linear_180_286" x1="182.784" y1="116.075" x2="270.399" y2="116.075" gradientUnits="userSpaceOnUse">
<stop stop-color="#FAF9FC"/>
<stop offset="0.08" stop-color="#EBC784"/>
<stop offset="0.15" stop-color="#E0A229"/>
<stop offset="0.18" stop-color="#DF982A"/>
<stop offset="0.27" stop-color="#DF7A2D"/>
<stop offset="0.36" stop-color="#DF672F"/>
<stop offset="0.42" stop-color="#DF6130"/>
<stop offset="0.56" stop-color="#B9326F"/>
<stop offset="0.7" stop-color="#6B2C8E"/>
<stop offset="1" stop-color="#181937"/>
</linearGradient>
<clipPath id="clip0_180_286">
<rect width="301.871" height="300" fill="white"/>
</clipPath>
</defs>
</svg>
