<svg xmlns="http://www.w3.org/2000/svg" width="305.841" height="67.22" viewBox="0 0 305.841 67.22">
  <g id="Group_66" data-name="Group 66" transform="translate(-1209.204 -168.121)">
    <g id="Group_27" data-name="Group 27" transform="translate(-2504)">
      <line id="Line_1" data-name="Line 1" x1="0.133" y1="0.907" transform="translate(4000.843 186.319)" fill="none" stroke="#fff" stroke-miterlimit="10" stroke-width="0.5"/>
      <g id="Group_26" data-name="Group 26">
        <path id="Path_253" data-name="Path 253" d="M3954.213,175.4a3.393,3.393,0,0,0-.44-1.235c-.928-1.1-2.567.223-3.963-.417a2.227,2.227,0,0,1-.985-2.375,2.946,2.946,0,0,1,1.061-1.631c1.836-1.558,5.883.027,5.912.53.045.78-1.015,1.709-1.585,2.491-.136.185-1.622-.181-1.756-.236" fill="none" stroke="#fff" stroke-miterlimit="10" stroke-width="0.5"/>
        <path id="Path_254" data-name="Path 254" d="M3954.817,172.022a2.686,2.686,0,0,0,1.443,0,16.077,16.077,0,0,1,2.3-.61,13.412,13.412,0,0,1,4.959.844,22.019,22.019,0,0,0,3.7,1.155c.816.131,2.087.029,3.367.2a33.572,33.572,0,0,0,5.931.458c3.356.089,5.691.343,6.638.311a5.172,5.172,0,0,1,2.985,1c1.284.75,3.751,1.435,6.328,2.544,6.672,2.87,8.423,4.184,10.5,3.4.865-.323,2.4-1.115,3.281-1.577,1.418-.747,1.06.233,1.181.185" fill="none" stroke="#fff" stroke-miterlimit="10" stroke-width="0.5"/>
        <path id="Path_255" data-name="Path 255" d="M3971.2,179.446a5.844,5.844,0,0,1,1.746-.669c.8.023,1.2.586,2.161.564.222-.005.935-.239.975-.444.059-.3-1.421-1.051-3.027-1.129-.96-.047-.894.326-1.942.217a26.749,26.749,0,0,0-4.177-.715,18.388,18.388,0,0,1-2.613-.22,13.035,13.035,0,0,1-2.254-.848c-1.339-.512-2-.569-3.2-1.118-1.236-.569-2.63-1.124-3.745-.85a1.189,1.189,0,0,0-.908,1.163c.018.87,1.354,1.545,2.881,2.155a26.133,26.133,0,0,0,4.413,1.223c1.266.27,2.1.448,3.084.585,2.014.279,3.182-.034,6.1.1,11.795.539,12-1.069,13.041-.832,1.3.294,1.484,1.668,2.705,2.289,1.606.816,2.8.985,6.73,1.987,3.222.822,4.553.876,6.379,2.313,1.175.924,1.929,1.9,2.775,1.665.762-.215.948-1.233,1.829-2.488.118-.168-.377.313,1.967-1.649.731-.612,2.428-2.323,2.1-2.931-.2-.373-1.817.726-3.336,1.519a7.834,7.834,0,0,1-3.941,1.185c-.9-.024-7.2-3.739-14.561-6.5-.475-.179-1.452-.865-1.943-1.01-2.357-.7-5.8-.066-12.95-1.269" fill="none" stroke="#fff" stroke-miterlimit="10" stroke-width="0.5"/>
        <path id="Path_256" data-name="Path 256" d="M3949.124,170.6a8.468,8.468,0,0,0-2.47.554,1.582,1.582,0,0,0-.623,1.09c-.009.833,2.342,3.55,2.342,3.55,2.838,1.735,16.876,4.481,16.876,4.481.035.871.066,1.067.092,2.073a146.656,146.656,0,0,1-17.588-4.58,8.118,8.118,0,0,1-2.3-2.818c-.282-.648.63-2.944.95-3.564" fill="none" stroke="#fff" stroke-miterlimit="10" stroke-width="0.5"/>
        <path id="Path_257" data-name="Path 257" d="M3965.823,180.327l.055,2.047,16.64.442v-2.183Z" fill="none" stroke="#fff" stroke-miterlimit="10" stroke-width="0.5"/>
        <path id="Path_258" data-name="Path 258" d="M3968.222,182.547l.042,1.023,12.539.335v-1.057Z" fill="none" stroke="#fff" stroke-miterlimit="10" stroke-width="0.5"/>
        <path id="Path_259" data-name="Path 259" d="M3960.316,196.5v1.022l22,.332.386-1.051Z" fill="none" stroke="#fff" stroke-miterlimit="10" stroke-width="0.5"/>
        <path id="Path_260" data-name="Path 260" d="M3982.994,180.718v2.167l17.255,6.4.727-2.058Z" fill="none" stroke="#fff" stroke-miterlimit="10" stroke-width="0.5"/>
        <line id="Line_2" data-name="Line 2" y1="0.849" x2="0.532" transform="translate(3965.823 179.478)" fill="none" stroke="#fff" stroke-miterlimit="10" stroke-width="0.5"/>
        <line id="Line_3" data-name="Line 3" y1="0.799" x2="0.709" transform="translate(3965.25 179.478)" fill="none" stroke="#fff" stroke-miterlimit="10" stroke-width="0.5"/>
        <line id="Line_4" data-name="Line 4" y1="0.675" x2="0.49" transform="translate(3965.371 181.729)" fill="none" stroke="#fff" stroke-miterlimit="10" stroke-width="0.5"/>
        <line id="Line_5" data-name="Line 5" y1="2.145" x2="0.414" transform="translate(3982.973 178.612)" fill="none" stroke="#fff" stroke-miterlimit="10" stroke-width="0.5"/>
        <line id="Line_6" data-name="Line 6" y1="1.892" x2="0.362" transform="translate(3982.519 178.741)" fill="none" stroke="#fff" stroke-miterlimit="10" stroke-width="0.5"/>
        <line id="Line_7" data-name="Line 7" y1="1.688" x2="0.454" transform="translate(3982.519 181.16)" fill="none" stroke="#fff" stroke-miterlimit="10" stroke-width="0.5"/>
        <line id="Line_8" data-name="Line 8" y2="10.751" transform="translate(3973.128 183.7)" fill="none" stroke="#fff" stroke-miterlimit="10" stroke-width="0.5"/>
        <line id="Line_9" data-name="Line 9" y2="10.792" transform="translate(3975.434 183.762)" fill="none" stroke="#fff" stroke-miterlimit="10" stroke-width="0.5"/>
        <line id="Line_10" data-name="Line 10" y1="1.088" x2="0.529" transform="translate(3980.802 182.817)" fill="none" stroke="#fff" stroke-miterlimit="10" stroke-width="0.5"/>
        <path id="Path_261" data-name="Path 261" d="M3965.6,190.315l-8.825,6.862,1.673-.027,8.65-6.835Z" fill="none" stroke="#fff" stroke-miterlimit="10" stroke-width="0.5"/>
        <path id="Path_262" data-name="Path 262" d="M3956.779,197.177h1.668v1.791h-1.6Z" fill="none" stroke="#fff" stroke-miterlimit="10" stroke-width="0.5"/>
        <line id="Line_11" data-name="Line 11" y2="1.367" transform="translate(3967.226 190.252)" fill="none" stroke="#fff" stroke-miterlimit="10" stroke-width="0.5"/>
        <line id="Line_12" data-name="Line 12" y2="1.738" transform="translate(3986.799 190.488)" fill="none" stroke="#fff" stroke-miterlimit="10" stroke-width="0.5"/>
        <line id="Line_13" data-name="Line 13" y1="1.514" x2="1.869" transform="translate(3958.447 197.453)" fill="none" stroke="#fff" stroke-miterlimit="10" stroke-width="0.5"/>
        <path id="Path_263" data-name="Path 263" d="M3985.3,190.488l-3.208,7.944,1.673-.027,3.033-7.917Z" fill="none" stroke="#fff" stroke-miterlimit="10" stroke-width="0.5"/>
        <path id="Path_264" data-name="Path 264" d="M3982.094,198.432h1.668v1.791h-1.6Z" fill="none" stroke="#fff" stroke-miterlimit="10" stroke-width="0.5"/>
        <line id="Line_14" data-name="Line 14" y1="7.996" x2="3.037" transform="translate(3983.762 192.226)" fill="none" stroke="#fff" stroke-miterlimit="10" stroke-width="0.5"/>
        <line id="Line_15" data-name="Line 15" x2="9.418" transform="translate(3975.427 191.62)" fill="none" stroke="#fff" stroke-miterlimit="10" stroke-width="0.5"/>
        <path id="Path_265" data-name="Path 265" d="M3973.128,191.62h-6.393l-6.419,4.878" fill="none" stroke="#fff" stroke-miterlimit="10" stroke-width="0.5"/>
        <path id="Path_266" data-name="Path 266" d="M3973.128,194.451a1.653,1.653,0,0,0,1.051.389,1.677,1.677,0,0,0,1.255-.354" fill="none" stroke="#fff" stroke-miterlimit="10" stroke-width="0.5"/>
      </g>
    </g>
    <path id="Path_267" data-name="Path 267" d="M3898.894,187.939h39.552" transform="translate(-2504)" fill="none" stroke="#fff" stroke-miterlimit="10" stroke-width="1"/>
    <g id="Group_28" data-name="Group 28" transform="translate(-2504)">
      <text id="Meditation" transform="translate(3932.045 216.341)" fill="#fff" font-size="7.854" font-family="SegoeUI, Segoe UI"><tspan x="24.405" y="8">Meditation</tspan></text>
    </g>
    <g id="Group_29" data-name="Group 29" transform="translate(-2504)">
      <text id="Intention_for_new_self" data-name="Intention for new self" transform="translate(3821.605 216.341)" fill="#fff" font-size="7.854" font-family="SegoeUI, Segoe UI"><tspan x="6.568" y="8">Intention for new self</tspan></text>
    </g>
    <path id="Path_268" data-name="Path 268" d="M3861.808,195.471c.786.323.023,1.064.442,1.662.561.8.3.575,1.23,2.089l6.38-2.986c-.89-1.423-1.464-1.95-1.232-2.771.358-1.272,1.591-2.685,1.517-4.793a5.051,5.051,0,0,0-3.73-4.522,7.082,7.082,0,0,0-7.707,2.02c-2.115,2.542-.783,9.2.019,9.909.569.5,2.672-.2,4.59-1.481.481-.321.42-1.13.5-1.935" transform="translate(-2504)" fill="none" stroke="#fff" stroke-miterlimit="10" stroke-width="1"/>
    <path id="Path_269" data-name="Path 269" d="M3855.294,168.621h16.45a.7.7,0,0,1,.5.205l6.275,6.275a1.392,1.392,0,0,1,.408.983v23.738a2.828,2.828,0,0,1-2.827,2.827h-19.084a3.244,3.244,0,0,1-3.246-3.26c.034-7.237.117-24.4.141-29.389A1.386,1.386,0,0,1,3855.294,168.621Z" transform="translate(-2504)" fill="none" stroke="#fff" stroke-miterlimit="10" stroke-width="1"/>
    <path id="Path_270" data-name="Path 270" d="M3878.762,175.666l-5.73-.158a.834.834,0,0,1-.834-.834l-.454-5.988" transform="translate(-2504)" fill="none" stroke="#fff" stroke-miterlimit="10" stroke-width="1"/>
    <g id="Group_30" data-name="Group 30" transform="translate(-2504)">
      <line id="Line_16" data-name="Line 16" y2="7.543" transform="translate(3873.049 178.102)" fill="#fff" stroke="#fff" stroke-miterlimit="10" stroke-width="1"/>
      <line id="Line_17" data-name="Line 17" x2="7.543" transform="translate(3869.278 181.873)" fill="#fff" stroke="#fff" stroke-miterlimit="10" stroke-width="1"/>
    </g>
    <path id="Path_271" data-name="Path 271" d="M3789.008,188.58h39.552" transform="translate(-2504)" fill="none" stroke="#fff" stroke-miterlimit="10" stroke-width="1"/>
    <path id="Path_272" data-name="Path 272" d="M3748.749,196.9c1.833.753.053,2.483,1.03,3.877,1.309,1.866.709,1.339,2.868,4.871l14.878-6.964c-2.075-3.317-3.414-4.546-2.874-6.462.837-2.966,3.712-6.261,3.54-11.177-.173-4.947-3.715-8.914-8.7-10.545a16.514,16.514,0,0,0-17.972,4.711c-4.932,5.927-1.827,21.451.045,23.108,1.325,1.173,6.231-.472,10.7-3.455,1.121-.747.981-2.635,1.166-4.512" transform="translate(-2504)" fill="none" stroke="#fff" stroke-miterlimit="10" stroke-width="1"/>
    <g id="Group_31" data-name="Group 31" transform="translate(-2504)">
      <text id="Old_Self" data-name="Old Self" transform="translate(3713.204 216.341)" fill="#fff" font-size="7.854" font-family="SegoeUI, Segoe UI"><tspan x="29.762" y="8">Old Self</tspan></text>
    </g>
  </g>
</svg>
