<svg width="117" height="400" viewBox="0 0 117 400" fill="none" xmlns="http://www.w3.org/2000/svg">
<path d="M59.531 197.186C62.7862 214.152 63.6966 261.6 67.9172 273.297C68.469 274.814 64.2207 282.317 65.131 302.4C65.8483 318.262 72.0828 357.241 74.0966 373.821C74.5379 377.462 70.1793 390.124 70.2621 396.193C70.2621 397.738 82.9793 400.662 85.5724 396.441C86.8966 394.262 82.2621 382.234 81.3241 376.717C81.1862 375.945 82.0966 375.338 82.1241 374.869C82.1793 374.428 81.5724 370.897 81.6276 370.4C83.0897 356.386 88 317.297 89.3793 305.048C91.7517 284.221 86.9241 288.166 86.2621 272.276C85.6 256.386 93.7931 222.207 92.5241 206.897C90.5379 182.731 84.8 169.683 84.469 159.559C84.2759 153.517 87.2828 121.517 87.3931 116.441C87.5586 108.083 89.5724 91.4207 89.5724 91.4207C89.5724 91.4207 87.2552 105.269 89.9586 117.49C90.9241 121.903 92.6069 126.014 93.2965 130.455C94.0414 135.172 93.8207 140.8 95.0345 145.959C99.531 164.938 102.152 167.476 104.414 178.731C105.572 184.441 103.752 188.966 104.717 191.835C105.517 194.179 108.8 199.338 109.462 199.117C109.986 198.924 110.207 198.069 109.352 195.614C108.497 193.159 107.559 190.152 108.11 189.959C108.11 189.959 110.51 192 111.145 196.248C112.221 203.366 106.869 209.269 107.669 209.848C108.193 210.207 111.117 207.228 112.386 204.083C114.372 199.2 115.338 193.876 114.51 191.807C112.855 187.641 111.972 186.428 110.097 180.8C109.103 177.793 108.855 175.972 108.579 165.103C108.248 152.745 108.469 147.228 107.503 141.821C106.51 136.193 106.207 136.662 105.021 131.669C103.476 125.048 105.655 121.545 105.379 107.945C105.214 99.0621 104.579 95.2 104.993 83.5862C105.269 75.7242 102.869 61.2138 90.0965 61.5449L82.3448 59.9449C71.8345 57.6276 68.0276 43.2552 67.7241 39.9724C67.2276 34.3449 70.1517 34.8966 70.5931 31.0621C71.3103 24.4414 71.2828 16.7449 69.5172 9.90347C68.1379 4.57934 63.3655 1.13106 57.131 1.46209C54.2345 1.60003 47.2552 3.06209 45.4897 9.8483C43.7793 16.3862 44.9103 27.5862 46.1517 32.2207C46.9241 35.2 49.7931 37.3518 49.9862 40.1655C50.1241 42.5104 46.0138 51.2552 40.1931 56.6621C37.8207 58.8966 32.5517 61.6828 26.1241 61.5173C13.1586 61.1862 10.5931 76.2483 10.8414 84.0828C11.2276 95.6966 11.0069 99.0069 10.8414 107.89C10.5655 121.49 12.7448 125.021 11.2 131.614C10.0138 136.635 9.73793 136.138 8.71724 141.766C7.75172 147.172 7.97241 152.69 7.64138 165.048C7.36552 175.945 7.11724 177.766 6.12414 180.745C4.24827 186.372 3.36552 187.586 1.71034 191.752C0.882757 193.821 1.82069 199.145 3.83448 204.028C5.13103 207.172 8.02758 210.152 8.55172 209.793C9.37931 209.241 4.02758 203.338 5.07586 196.193C5.71034 191.945 8.11034 189.903 8.11034 189.903C8.66207 190.097 7.72414 193.103 6.86896 195.559C6.01379 198.014 6.23448 198.869 6.75862 199.062C7.42069 199.31 10.731 194.124 11.5034 191.779C12.469 188.91 10.6483 184.386 11.8069 178.676C14.069 167.448 18.4 164.883 22.8966 145.903C24.1379 140.717 23.7793 136.083 24.5241 131.366C25.2138 126.952 26.5655 122.897 27.5034 118.51C28.9379 111.779 27.5034 93.6828 27.5034 93.6828C27.5034 93.6828 28.1931 103.448 29.6552 116.386C30.2345 121.435 32.7724 153.462 32.5793 159.503C32.2483 169.628 26.4828 182.676 24.5241 206.841C23.2828 222.152 30.6207 256.414 29.931 272.414C29.2414 288.414 24.4414 284.138 26.8138 304.966C28.1931 317.214 33.131 356.303 34.5655 370.317C34.6207 370.814 34.0414 374.372 34.069 374.786C34.1241 375.255 35.0069 375.862 34.869 376.634C33.931 382.124 29.2966 394.179 30.6207 396.359C33.2138 400.579 45.931 397.655 45.931 396.11C46.0138 390.041 41.6552 377.379 42.0966 373.738C44.1103 357.159 50.3448 318.179 51.0621 302.317C51.9724 282.262 47.7241 274.952 48.2759 273.435C52.4966 261.71 54.8138 213.793 58.069 196.828L59.5034 197.103L59.531 197.186Z" stroke="white" stroke-miterlimit="10"/>
<path d="M45.2138 32.5794C47.0345 35.1449 48.9379 37.7105 51.0897 40.0277C51.8069 40.8001 52.6621 41.8208 53.6552 42.2622C54.4828 42.6208 55.5035 42.6484 56.3586 42.7036C58.3172 42.8415 60.9379 43.1173 62.7586 42.2622C63.6138 41.876 64.2759 41.0208 64.8552 40.3311C65.6828 39.3656 66.4828 38.3449 67.2276 37.3242C68.7172 35.3105 70.1793 33.2139 71.5035 31.0898C72.0276 30.2622 70.0138 30.4001 69.6276 31.007C68.331 33.1036 66.8966 35.1449 65.4345 37.1311C64.5241 38.3449 63.6138 39.5863 62.5655 40.6898C62.4276 40.8277 61.7655 41.4622 61.931 41.3794C61.5172 41.6001 60.8552 41.5449 60.4138 41.5725C59.0897 41.6553 57.7655 41.6001 56.469 41.4898C55.1724 41.3794 54.6207 40.9932 53.6828 40.0829C51.1724 37.6277 49.0483 34.7036 47.0345 31.8622C46.6207 31.2829 44.6897 31.9725 45.1862 32.6622L45.2138 32.5794Z" fill="white"/>
<path d="M22.7586 62.3449C28.2207 61.9311 33.2138 63.0346 38.4276 64.4967C42.6207 65.6829 46.6759 66.1518 50.9517 65.0208C52.1379 64.6898 51.8897 63.6691 50.6759 64.0001C46.3448 65.1587 42.3724 64.1656 38.1793 62.9794C33.1862 61.5449 28.2483 60.8277 23.0345 61.2139C22.0414 61.2967 21.3793 62.4553 22.7586 62.3449Z" fill="white"/>
<path d="M24.0552 83.338C25.1586 86.4277 25.7931 89.6001 26.3172 92.8277C26.7034 95.2277 27.0345 97.7656 28.2207 99.9173C29.5172 102.262 31.8069 103.89 34.3724 104.579C36.469 105.131 38.4552 104.855 40.5517 104.635C41.4897 104.552 42.2345 103.476 40.8552 103.614C38.8414 103.807 37.0207 104.083 35.0621 103.366C32.6621 102.51 30.7034 100.717 29.7103 98.3725C28.8276 96.276 28.5517 93.9587 28.1931 91.7242C27.6965 88.6898 27.0621 85.7105 26.0138 82.8139C25.7931 82.1518 23.8069 82.7587 24.0276 83.338H24.0552Z" fill="white"/>
<path d="M36.3034 154.786C36.5241 155.862 37.1862 156.773 37.8207 157.628C38.7034 158.814 39.6966 159.917 40.6897 161.021C41.6828 162.124 42.7586 163.338 43.6966 164.552C44.3034 165.324 45.1034 166.345 45.2965 167.255C45.4345 167.917 45.5448 166.731 45.5448 166.648C45.6 165.876 45.6276 165.048 45.4897 164.276C45.269 163.2 44.6069 162.29 43.9724 161.435C43.0897 160.248 42.0965 159.145 41.1034 158.041C40.1103 156.938 39.0345 155.724 38.0966 154.51C37.4897 153.738 36.6897 152.717 36.4965 151.807C36.3586 151.145 36.2483 152.331 36.2483 152.414C36.1931 153.186 36.1655 154.014 36.3034 154.786Z" fill="white"/>
<path d="M46.069 261.545C45.8759 264 45.0207 266.372 43.9448 268.552C43.0897 270.317 42.069 272.138 40.6897 273.545C40.6621 273.573 40.6897 274.069 40.6897 274.041C40.6897 274.455 40.6897 274.841 40.6897 275.255C40.6897 275.669 40.6897 276.055 40.6897 276.469C40.6897 276.552 40.7448 276.938 40.6897 276.966C42.0966 275.586 43.0897 273.738 43.9448 271.972C45.0207 269.766 45.8759 267.393 46.069 264.966C46.1517 263.835 45.9862 262.648 46.069 261.517V261.545Z" fill="white"/>
<path d="M35.9172 273.159C34.5655 271.504 33.7655 269.517 33.2138 267.476C32.9655 266.51 32.7724 265.517 32.6345 264.552C32.5793 264.11 32.5241 263.697 32.4966 263.255C32.4966 263.007 32.469 262.786 32.4414 262.538C32.4414 262.455 32.4414 262.373 32.4414 262.29C32.4414 262.235 32.4414 262.179 32.4414 262.152C32.4414 261.324 32.4414 262.124 32.4414 264.552C32.4414 263.835 32.4414 263.145 32.4414 262.428C32.4414 262.097 32.4414 261.738 32.4414 261.407C32.4414 261.379 32.4414 261.076 32.4414 261.242C32.3035 266.428 32.469 272.414 35.9172 276.635C35.9172 276.607 35.9172 276.083 35.9172 276.138C35.9172 275.724 35.9172 275.338 35.9172 274.924C35.9172 274.51 35.9172 274.124 35.9172 273.71C35.9172 273.6 35.9724 273.269 35.9172 273.214V273.159Z" fill="white"/>
<path d="M9.43448 174.648C9.07586 175.228 8.74483 175.807 8.52414 176.441C8.33103 176.993 8.24828 177.572 8.1931 178.124C8.13793 178.676 8.1931 179.283 8.1931 179.834C8.1931 180.248 8.1931 180.634 8.1931 181.048C8.1931 181.214 8.1931 181.379 8.1931 181.545C8.24828 180.965 8.33103 180.386 8.52414 179.862C8.74483 179.227 9.07586 178.621 9.43448 178.069C9.48966 178.014 9.43448 177.572 9.43448 177.572C9.43448 177.159 9.43448 176.772 9.43448 176.359C9.43448 175.945 9.43448 175.559 9.43448 175.145V174.869C9.43448 174.869 9.43448 174.703 9.43448 174.621V174.648Z" fill="white"/>
<path d="M92.6621 61.0758C87.4483 60.6896 82.4828 61.4345 77.4621 62.8689C73.269 64.0551 69.2965 64.9931 64.9655 63.8345C64.1655 63.6138 62.5931 64.8 63.7793 65.1034C68.0552 66.2345 72.1103 65.7103 76.3034 64.5517C81.5172 63.0896 86.4552 62.0138 91.9172 62.4276C92.8276 62.5103 93.9862 61.1586 92.6345 61.0758H92.6621Z" fill="white"/>
<path d="M90.0414 83.2276C89.0207 86.0414 88.4138 88.9104 87.9172 91.8345C87.5586 94.0414 87.2828 96.331 86.4828 98.4552C85.6 100.772 83.8345 102.731 81.4621 103.559C79.6414 104.193 77.8759 103.862 76 103.669C75.5862 103.641 74.8966 103.752 74.5931 104.055C74.3172 104.303 74.2897 104.469 74.731 104.524C76.8828 104.717 78.869 104.966 81.0207 104.414C83.6966 103.724 86.2345 102.152 87.669 99.7793C88.9655 97.6552 89.3241 95.0897 89.7103 92.6621C90.2345 89.3517 90.869 86.069 92.0276 82.8966C92.1655 82.5104 90.2345 82.7035 90.0414 83.2276Z" fill="white"/>
<path d="M80.4414 151.807C80.2483 152.717 79.4483 153.738 78.8414 154.51C77.9034 155.724 76.8552 156.883 75.8345 158.041C74.8138 159.2 73.8759 160.248 72.9655 161.435C72.3034 162.29 71.669 163.2 71.4483 164.276C71.2828 165.021 71.3379 165.876 71.3931 166.648C71.3931 166.814 71.531 167.917 71.6414 167.255C71.8345 166.345 72.6345 165.324 73.2414 164.552C74.1793 163.338 75.2276 162.179 76.2483 161.021C77.269 159.862 78.2069 158.814 79.1172 157.628C79.7793 156.772 80.4138 155.862 80.6345 154.786C80.8 154.041 80.7448 153.186 80.6897 152.414C80.6897 152.248 80.5517 151.145 80.4414 151.807Z" fill="white"/>
<path d="M69.1586 264.993C69.3517 267.448 70.2069 269.821 71.2828 272C72.1379 273.766 73.1586 275.586 74.5379 276.993C74.5379 276.993 74.5379 276.441 74.5379 276.497C74.5379 276.083 74.5379 275.697 74.5379 275.283C74.5379 274.869 74.5379 274.483 74.5379 274.069C74.5379 273.986 74.5931 273.628 74.5379 273.573C73.131 272.193 72.1379 270.345 71.2828 268.579C70.2069 266.373 69.3517 264 69.1586 261.573C69.2414 262.704 69.0759 263.89 69.1586 265.021V264.993Z" fill="white"/>
<path d="M79.3103 276.607C82.7586 272.386 82.9241 266.372 82.7862 261.214C82.7862 260.993 82.7862 261.49 82.7862 261.379C82.7862 261.71 82.7862 262.069 82.7862 262.4C82.7862 263.117 82.7862 263.807 82.7862 264.524C82.7862 265.103 82.8414 261.186 82.7862 262.207C82.7862 262.317 82.7862 262.4 82.7862 262.51C82.7862 262.703 82.7862 262.924 82.7586 263.117C82.731 263.559 82.6759 264 82.6207 264.441C82.4828 265.462 82.2897 266.455 82.0414 267.448C81.5172 269.49 80.6897 271.503 79.3379 273.131C79.3103 273.186 79.3379 273.628 79.3379 273.628C79.3379 274.041 79.3379 274.427 79.3379 274.841C79.3379 275.255 79.3379 275.641 79.3379 276.055C79.3379 276.138 79.3931 276.496 79.3379 276.552L79.3103 276.607Z" fill="white"/>
<path d="M105.766 178.096C106.124 178.676 106.455 179.255 106.676 179.89C106.869 180.441 106.952 181.021 107.007 181.572C107.007 181.407 107.007 181.214 107.007 181.076C107.007 180.662 107.007 180.276 107.007 179.862C107.007 179.283 107.034 178.703 107.007 178.152C106.979 177.6 106.869 176.993 106.676 176.469C106.455 175.834 106.124 175.228 105.766 174.676C105.766 174.731 105.766 174.786 105.766 174.814C105.766 174.924 105.766 175.062 105.766 175.172C105.766 175.586 105.766 175.972 105.766 176.386C105.766 176.8 105.766 177.186 105.766 177.6V177.876C105.766 177.876 105.766 178.041 105.766 178.124V178.096Z" fill="white"/>
<path d="M66.0414 38.1516C65.3241 42.262 64.6345 46.3723 63.9172 50.4826C63.8345 51.0344 63.9172 51.6413 63.9172 52.193C63.9172 52.7447 64.0276 53.3792 63.9172 53.9033C64.6345 49.793 65.3241 45.6826 66.0414 41.5723C66.1241 41.0206 66.0414 40.4137 66.0414 39.862C66.0414 39.3102 65.931 38.6757 66.0414 38.1516Z" fill="white"/>
<path d="M50.8138 41.5999C51.7517 46.8964 53.8759 51.9447 54.8138 57.2413C54.6207 56.1378 55.0069 54.924 54.8138 53.793C53.8759 48.4964 51.7517 43.4482 50.8138 38.1516C51.0069 39.2551 50.6207 40.4689 50.8138 41.5999Z" fill="white"/>
<path d="M88.0276 118.235H80.5241V112.359H88.1103V118.235H88.0276Z" fill="white" stroke="#231F20" stroke-width="0.25" stroke-miterlimit="10"/>
<path d="M88.1103 114.979C88.1103 116.248 88.2207 116.193 87.4483 116.276C85.4345 116.496 83.8069 115.834 83.8069 115.31C83.8069 114.786 85.4345 114.345 87.4483 114.345C88.2207 114.345 88.1103 114.455 88.1103 114.979Z" fill="white" stroke="#231F20" stroke-width="0.25" stroke-miterlimit="10"/>
<path d="M40.7448 114.731H29.0483V120.414H40.7448V114.731Z" fill="white" stroke="#231F20" stroke-width="0.25" stroke-miterlimit="10"/>
<path d="M35.1448 118.51C37.2321 118.51 38.9241 118.09 38.9241 117.572C38.9241 117.054 37.2321 116.635 35.1448 116.635C33.0576 116.635 31.3655 117.054 31.3655 117.572C31.3655 118.09 33.0576 118.51 35.1448 118.51Z" fill="#ACABAB" stroke="#030303" stroke-width="0.25" stroke-miterlimit="10"/>
<path d="M51.6138 138.538C55.7793 130.262 59.669 124.883 72.4138 124.303C74.731 124.193 75.3379 106.345 72.5793 106.207C60.8 105.628 56.5517 101.076 51.9724 93.8207C50.0966 90.869 49.0483 105.324 49.1034 114.841C49.1586 124.8 49.9586 141.738 51.5862 138.51L51.6138 138.538Z" stroke="white" stroke-width="0.25" stroke-miterlimit="10"/>
<path d="M72.6069 106.207C69.9035 107.559 63.5035 112.91 59.5586 117.324C52.2483 125.462 51.4759 135.09 51.0897 138.538" stroke="white" stroke-width="0.25" stroke-miterlimit="10"/>
<path d="M49.269 111.945C47.6414 113.738 43.2828 114.345 40.9379 114.428L40.7172 120.497C44.7724 120.607 48.5793 122.483 49.269 123.2" stroke="white" stroke-width="0.25" stroke-miterlimit="10"/>
<path d="M49.2138 116.166C46.4552 116.662 44.2207 117.297 44.2483 117.903C44.2759 118.483 46.7034 119.421 49.269 119.641" stroke="white" stroke-width="0.25" stroke-miterlimit="10"/>
<path d="M74.4276 110.29C75.669 111.917 78.9793 112.441 80.7724 112.524L80.9379 117.986C77.8483 118.069 74.4552 120.11 73.931 120.745" stroke="white" stroke-width="0.25" stroke-miterlimit="10"/>
<path d="M74.4828 113.986C76.5793 114.373 78.2897 114.841 78.2621 115.31C78.2621 115.752 76.3862 116.441 74.4552 116.635" stroke="white" stroke-width="0.25" stroke-miterlimit="10"/>
<path d="M68.3862 105.628C66.6483 104.359 66.3724 98.8965 66.2069 96.9655L61.4621 95.3655C59.9724 98.5379 58.6483 100.552 57.6276 101.297" stroke="white" stroke-width="0.25" stroke-miterlimit="10"/>
<path d="M64.1379 104.745C63.6138 102.483 63.2828 99.3931 62.7862 99.4482C62.2897 99.5034 60.8552 101.407 60.7724 103.531" stroke="white" stroke-width="0.25" stroke-miterlimit="10"/>
<path d="M72.2207 60.8276C72.7448 61.1587 73.7931 62.0138 74.3172 62.9794C74.9517 64.138 74.8414 64.8001 74.6207 65.5173" stroke="white" stroke-width="0.1" stroke-miterlimit="10"/>
<path d="M72.6897 61.2139C72.5517 61.407 72.5793 61.5725 72.5793 61.738C72.5793 61.9311 72.6069 62.4001 73.2138 63.4759C73.8759 64.6346 74.6483 65.0483 74.7586 65.0208" stroke="white" stroke-width="0.1" stroke-miterlimit="10"/>
<path d="M72.6897 62.1792C72.9655 62.3447 73.9034 62.7861 74.6483 63.7516" stroke="white" stroke-width="0.1" stroke-miterlimit="10"/>
<path d="M70.2069 67.007C70.7862 67.2001 71.8621 67.3656 72.6069 67.2277C74.0414 66.9518 74.4552 65.738 74.5931 65.4897" stroke="white" stroke-width="0.1" stroke-miterlimit="10"/>
<path d="M71.2828 67.2551C71.5035 67.062 71.8621 66.6757 72.2759 66.4826C73.0207 66.1516 73.8759 66.0964 74.2621 66.0964" stroke="white" stroke-width="0.1" stroke-miterlimit="10"/>
<path d="M72.0552 65.2966C71.5862 65.1586 71.3931 65.0759 71.3931 65.0759C71.2828 64.9104 71.3379 64.5242 71.6138 64.4414C71.6138 64.4414 71.9172 64.4966 72.2759 64.6345" stroke="white" stroke-width="0.1" stroke-miterlimit="10"/>
<path d="M75.3931 65.738C75.9172 65.9035 77.9586 66.7035 78.3448 66.4277C78.8965 66.0415 79.4759 65.5173 79.8069 65.0483C80.1931 64.469 80.4138 63.9725 80.5793 63.4759C80.8552 62.6759 81.0207 62.3725 80.9655 62.069C80.9103 61.738 80.6621 61.5173 80.3034 61.2966C79.7517 60.9656 79.1724 60.7449 77.5172 60.1104L76.7724 59.8346C75.0897 59.2552 74.4828 59.0621 73.8759 58.9794C73.4897 58.9242 73.1586 58.9242 72.8828 59.1449C72.6345 59.338 72.5793 59.669 72.2759 60.469C72.0828 60.9656 71.9448 61.4897 71.8897 62.1794C71.8345 62.7311 71.9724 63.5311 72.1379 64.1656C72.2483 64.607 74.3448 65.3242 74.8414 65.5173L75.3655 65.7104L75.3931 65.738Z" stroke="white" stroke-width="0.1" stroke-miterlimit="10"/>
<path d="M80.4414 63.7517C79.8345 63.669 78.4828 63.669 77.4621 64.0828C76.2483 64.5793 75.9172 65.1586 75.6138 65.8483" stroke="white" stroke-width="0.1" stroke-miterlimit="10"/>
<path d="M79.8069 63.7517C79.8069 64 79.669 64.0827 79.5586 64.2207C79.4483 64.3586 79.1172 64.7172 77.9586 65.1586C76.6897 65.6276 75.8345 65.4621 75.7793 65.3793" stroke="white" stroke-width="0.1" stroke-miterlimit="10"/>
<path d="M79.2 64.4966C78.869 64.4414 77.8759 64.1932 76.6621 64.4966" stroke="white" stroke-width="0.1" stroke-miterlimit="10"/>
<path d="M78.1241 66.4828C77.9586 66.6759 77.7379 67.2 77.6552 67.6414C77.5172 68.4966 78.0966 68.8828 78.0414 69.9586C78.0414 70.2621 77.9862 70.7035 77.7655 71.1724C77.5724 71.5862 77.0759 71.8897 76.4966 71.6966C75.2276 71.2828 75.1448 71.2552 73.6 70.7035L73.4345 70.6483C71.8621 70.069 71.3655 70.0138 70.3448 69.5173C69.7655 69.2414 69.6276 68.6069 69.7103 68.2759C69.8207 67.7793 69.9586 67.3931 70.1241 67.1449C70.7586 66.2897 71.4483 66.3449 71.8897 65.6C72.1103 65.2138 72.2483 64.6621 72.2759 64.4138" stroke="white" stroke-width="0.1" stroke-miterlimit="10"/>
<path d="M78.069 69.8208C77.4897 69.6277 76.5793 69.0484 76.0828 68.4691C75.1448 67.338 75.6138 66.1518 75.6414 65.876" stroke="white" stroke-width="0.1" stroke-miterlimit="10"/>
<path d="M77.0759 69.3241C77.0207 69.0206 76.9931 68.4965 76.7724 68.1103C76.4138 67.393 75.7793 66.7861 75.4759 66.5654" stroke="white" stroke-width="0.1" stroke-miterlimit="10"/>
<path d="M77.7379 67.3103C78.1793 67.5034 78.4 67.5585 78.4 67.5585C78.5931 67.5034 78.7862 67.1447 78.6483 66.9241C78.6483 66.9241 78.3724 66.7585 78.0138 66.6758" stroke="white" stroke-width="0.1" stroke-miterlimit="10"/>
<path d="M73.2793 59.9011L73.0936 60.4207C73.0065 60.6646 73.1336 60.9329 73.3775 61.0201L79.4044 63.1733C79.6483 63.2604 79.9167 63.1333 80.0038 62.8894L80.1894 62.3699C80.2766 62.126 80.1495 61.8576 79.9056 61.7705L73.8787 59.6173C73.6348 59.5301 73.3664 59.6572 73.2793 59.9011Z" stroke="white" stroke-width="0.1" stroke-miterlimit="10"/>
<path d="M70.4129 67.9651L70.3016 68.2769C70.2144 68.5208 70.3415 68.7891 70.5854 68.8763L76.6123 71.0295C76.8562 71.1166 77.1246 70.9895 77.2117 70.7456L77.3231 70.4339C77.4103 70.19 77.2832 69.9216 77.0393 69.8345L71.0124 67.6813C70.7684 67.5942 70.5001 67.7212 70.4129 67.9651Z" stroke="white" stroke-width="0.1" stroke-miterlimit="10"/>
<path d="M76.0552 70.2897L66.2621 96.7173L61.4621 95.1724L71.3655 68.469L76.0552 70.2897Z" fill="white" stroke="#231F20" stroke-width="0.25" stroke-miterlimit="10"/>
<path d="M79.0069 62.3172L80.7724 57.6L75.9448 56.0552L74.2621 60.6069L79.0069 62.3172Z" fill="white" stroke="#231F20" stroke-width="0.25" stroke-miterlimit="10"/>
<path d="M67.4684 88.5549C68.256 86.1035 68.5416 84.0029 68.1064 83.8631C67.6713 83.7233 66.6801 85.5973 65.8926 88.0487C65.105 90.5001 64.8194 92.6006 65.2546 92.7404C65.6897 92.8802 66.6809 91.0063 67.4684 88.5549Z" fill="#ACABAB" stroke="#030303" stroke-width="0.25" stroke-miterlimit="10"/>
<path d="M71.8114 76.6566C72.6776 74.2319 73.0309 72.1416 72.6005 71.9878C72.1701 71.8341 71.1189 73.675 70.2527 76.0997C69.3864 78.5244 69.0331 80.6146 69.4635 80.7684C69.8939 80.9222 70.9451 79.0812 71.8114 76.6566Z" fill="#ACABAB" stroke="#030303" stroke-width="0.25" stroke-miterlimit="10"/>
</svg>
