<svg width="389" height="200" viewBox="0 0 389 200" fill="none" xmlns="http://www.w3.org/2000/svg">
<g clip-path="url(#clip0_2_325)">
<path d="M343.444 116.448L342.617 110.676" stroke="white" stroke-miterlimit="10"/>
<path d="M54.9899 41.0075C55.0803 39.8717 53.3744 34.4735 52.2759 33.1373C46.5508 26.109 36.4445 34.5671 27.8374 30.4783C22.8101 28.0999 20.7553 20.8445 21.7633 15.3394C22.7714 9.8343 26.8552 6.19988 28.3027 4.94387C39.6237 -4.99734 64.5921 5.11757 64.773 8.32441C65.0573 13.295 58.5051 19.2143 54.9899 24.2116C54.1498 25.3875 44.987 23.0625 44.1599 22.7017" stroke="white" stroke-miterlimit="10"/>
<path d="M58.7248 19.4949C59.035 19.4949 63.3773 21.0048 67.6291 19.4949C72.902 17.6243 80.0875 15.7536 81.8322 15.6066C90.2454 14.8717 99.4341 16.8893 112.422 20.9914C120.926 23.6772 125.152 26.6836 135.207 28.3538C140.247 29.1956 148.078 28.5409 155.975 29.6499C176.213 32.5093 173.37 32.055 192.561 32.5761C213.265 33.1373 227.662 34.7675 233.503 34.5671C240.663 34.3265 245.38 36.9989 251.92 40.9407C259.842 45.7242 275.053 50.0935 290.949 57.1619C332.097 75.4676 342.902 83.8455 355.748 78.8749C361.085 76.8172 370.584 71.7664 375.986 68.8135C384.735 64.0433 382.525 70.2966 383.275 69.9893" stroke="white" stroke-miterlimit="10"/>
<path d="M159.736 66.836C163.729 64.805 168.407 62.5201 170.501 62.5735C175.425 62.7205 177.906 66.3148 183.838 66.1679C185.208 66.1411 189.602 64.6446 189.847 63.3351C190.209 61.3977 181.085 56.6275 171.173 56.1331C165.254 55.8392 165.655 58.2176 159.193 57.5227C152.834 56.8413 148.066 53.7413 133.423 52.9664C126.496 52.5922 121.766 52.5121 117.307 51.5634C111.815 50.4009 108.791 48.2897 103.402 46.1518C95.1434 42.8782 91.0337 42.5174 83.6802 39.0166C76.0553 35.3822 67.4611 31.8547 60.5728 33.5917C57.3032 34.4201 54.8994 37.5067 54.9769 41.0075C55.0932 46.5527 63.3256 50.8552 72.7469 54.7568C76.3913 56.2667 83.2537 58.8589 99.9639 62.5602C107.77 64.2838 112.913 65.4196 118.987 66.2881C131.407 68.0652 138.618 66.0743 156.595 66.9161C229.355 70.3501 230.596 60.1016 237.032 61.6115C245.057 63.4955 246.194 72.2475 253.716 76.2026C263.615 81.4137 270.982 82.4827 295.226 88.883C315.103 94.1208 323.309 94.4682 334.579 103.634C341.816 109.527 346.481 115.767 351.69 114.257C356.394 112.894 357.531 106.4 362.972 98.3966C363.696 97.3277 360.646 100.401 375.107 87.8808C379.617 83.9792 390.086 73.0626 388.082 69.1876C386.855 66.8092 376.878 73.8242 367.508 78.875C362.287 81.6943 353.874 86.7317 343.199 86.4378C337.616 86.2908 298.78 62.5869 253.38 44.976C250.446 43.8402 244.424 39.4575 241.4 38.5356C226.861 34.0727 205.653 38.1214 161.519 30.4517" stroke="white" stroke-miterlimit="10"/>
<path d="M23.5984 10.4356C22.6938 10.4089 10.9333 11.9722 8.36154 13.9631C5.14357 16.4618 4.52323 20.1496 4.52323 20.9113C4.47154 26.2293 18.9718 43.5462 18.9718 43.5462C36.4703 54.6098 123.071 72.1272 123.071 72.1272C123.278 77.6857 123.472 78.9284 123.64 85.342C123.64 85.342 78.7175 77.2181 15.1464 56.1331C12.4066 55.2245 3.59274 44.3746 0.969247 38.1614C-0.762514 34.0326 4.85925 19.388 6.83656 15.4329" stroke="white" stroke-miterlimit="10"/>
<path d="M126.612 72.4612L126.948 85.5158L229.588 88.3351V74.4121L126.612 72.4612Z" stroke="white" stroke-miterlimit="10"/>
<path d="M141.397 86.6115L141.655 93.132L219.003 95.2699V88.5356L141.397 86.6115Z" stroke="white" stroke-miterlimit="10"/>
<path d="M92.6363 175.588V182.109L228.321 184.22L230.699 177.525L92.6363 175.588Z" stroke="white" stroke-miterlimit="10"/>
<path d="M232.521 74.9465V88.7627L338.96 129.583L343.444 116.448L232.521 74.9465Z" stroke="white" stroke-miterlimit="10"/>
<path d="M126.612 72.4612L129.895 67.0497" stroke="white" stroke-miterlimit="10"/>
<path d="M123.071 72.1405L127.44 67.0497" stroke="white" stroke-miterlimit="10"/>
<path d="M123.821 85.7028L126.845 81.4003" stroke="white" stroke-miterlimit="10"/>
<path d="M232.392 75.2004L234.951 61.5179" stroke="white" stroke-miterlimit="10"/>
<path d="M229.588 74.4121L231.81 62.3463" stroke="white" stroke-miterlimit="10"/>
<path d="M229.588 88.5356L232.392 77.7659" stroke="white" stroke-miterlimit="10"/>
<path d="M171.664 93.9604V162.533" stroke="white" stroke-miterlimit="10"/>
<path d="M185.893 94.3613V163.188" stroke="white" stroke-miterlimit="10"/>
<path d="M219.003 95.2699L222.26 88.3351" stroke="white" stroke-miterlimit="10"/>
<path d="M125.255 136.157L70.8213 179.917L81.1343 179.743L134.496 136.157H125.255Z" stroke="white" stroke-miterlimit="10"/>
<path d="M70.8213 179.917H81.1085V191.328H71.2219L70.8213 179.917Z" stroke="white" stroke-miterlimit="10"/>
<path d="M135.258 135.756V144.468" stroke="white" stroke-miterlimit="10"/>
<path d="M255.99 137.253V148.343" stroke="white" stroke-miterlimit="10"/>
<path d="M81.1085 191.328L92.6363 181.681" stroke="white" stroke-miterlimit="10"/>
<path d="M246.75 137.253L226.964 187.921L237.29 187.747L255.99 137.253H246.75Z" stroke="white" stroke-miterlimit="10"/>
<path d="M226.964 187.921H237.264V199.332H227.365L226.964 187.921Z" stroke="white" stroke-miterlimit="10"/>
<path d="M237.264 199.332L255.99 148.343" stroke="white" stroke-miterlimit="10"/>
<path d="M185.841 144.468H243.933" stroke="white" stroke-miterlimit="10"/>
<path d="M171.664 144.468H132.234L92.6363 175.588" stroke="white" stroke-miterlimit="10"/>
<path d="M171.664 162.533C172.09 163.482 175.696 165.019 178.152 165.019C182.559 165.019 184.458 164.097 185.893 162.761" stroke="white" stroke-miterlimit="10"/>
</g>
<defs>
<clipPath id="clip0_2_325">
<rect width="389" height="200" fill="white"/>
</clipPath>
</defs>
</svg>
