<svg width="80" height="40" viewBox="0 0 80 40" fill="none" xmlns="http://www.w3.org/2000/svg">
<g clip-path="url(#clip0_104_682)">
<path d="M76.83 14.6398H77.2911C78.2133 14.6398 78.9625 15.389 78.9625 16.3112V27.3199C78.9625 28.2421 78.2133 28.9914 77.2911 28.9914H76.83C75.9078 28.9914 75.1585 28.2421 75.1585 27.3199V16.3689C75.1585 15.3891 75.9078 14.6398 76.83 14.6398Z" stroke="white" stroke-width="2" stroke-miterlimit="10"/>
<path d="M39.7695 32.6225C38.3862 32.6225 37.3487 32.6225 36.3689 32.7377C32.7954 33.1412 35.3314 38.9049 31.9308 39.0778C17.5216 39.7118 10.3746 39.8271 7.0317 36.0807C4.03458 32.6225 4.55331 29.3372 4.49568 21.902C4.43804 16.2536 3.86167 12.6801 5.82132 8.99135C6.74351 7.31988 10.0288 5.07204 12.6801 4.89913C18.2133 4.61094 28.5303 4.84149 39.3084 4.84149H40.2305C51.0663 4.84149 61.3256 4.61094 66.8588 4.95676C69.5101 5.07204 72.853 7.31988 73.7176 9.04898C75.6772 12.7377 75.1009 16.3112 75.0432 21.9596C74.9856 29.3948 75.5043 32.6801 72.5072 36.0807C69.1643 39.8271 62.0173 39.7118 47.6081 39.0778C44.2075 38.9049 46.7435 33.1988 43.17 32.7377C42.1902 32.6225 41.9597 32.6225 40.5764 32.6225H39.7695Z" stroke="white" stroke-width="2" stroke-miterlimit="10"/>
<path d="M2.76656 29.049H2.24782C1.32563 29.049 0.576355 28.2997 0.576355 27.3775V16.3112C0.576355 15.389 1.32563 14.6398 2.24782 14.6398H2.70892C3.63111 14.6398 4.38039 15.389 4.38039 16.3112V27.3199C4.43803 28.2997 3.68875 29.049 2.76656 29.049Z" stroke="white" stroke-width="2" stroke-miterlimit="10"/>
<path d="M32.7954 3.17001V2.24782C32.7954 1.32563 33.5447 0.576355 34.4668 0.576355H45.072C45.9942 0.576355 46.7435 1.32563 46.7435 2.24782V3.17001C46.7435 4.09221 45.9942 4.84148 45.072 4.84148H34.4668C33.5447 4.84148 32.7954 4.09221 32.7954 3.17001Z" stroke="white" stroke-width="2" stroke-miterlimit="10"/>
<path d="M15.1585 8.47262C14.6398 8.01153 11.5274 7.78098 9.04899 10.4323C7.08934 12.5648 7.4928 16.7723 7.55044 17.9827C7.55044 18.5591 8.1268 18.732 8.64554 18.7896C9.22191 18.8473 9.79827 18.3862 9.79827 17.7522C9.74064 14.3516 9.74064 13.3718 10.6052 12.1614C12.5072 9.56772 14.3516 10.6052 15.2161 9.74063C15.562 9.39481 15.3891 8.64553 15.1585 8.47262Z" fill="white"/>
<path d="M7.49279 22.8242C7.43516 24.2075 8.1268 24.5533 8.64553 24.6686C9.2219 24.7262 9.79827 24.2651 9.79827 23.0547C9.79827 21.8444 10.0865 20.5764 8.76081 20.5764C7.0317 20.5187 7.55043 22.0749 7.49279 22.8242Z" fill="white"/>
</g>
<defs>
<clipPath id="clip0_104_682">
<rect width="79.5965" height="40" fill="white"/>
</clipPath>
</defs>
</svg>
