<svg width="115" height="81" viewBox="0 0 115 81" fill="none" xmlns="http://www.w3.org/2000/svg">
<g clip-path="url(#clip0_180_461)">
<path d="M64.3778 47.961C64.7252 49.2525 67.9317 57.4292 66.6313 56.8948C63.9948 55.817 63.8345 65.1516 65.6961 68.563C66.7471 70.478 69.7221 70.282 70.5148 69.1241C72.0913 66.8261 71.165 61.4908 69.8468 57.2154C68.2969 52.174 67.62 49.3327 67.7536 48.825" stroke="white" stroke-miterlimit="10"/>
<path d="M66.9252 6.58785C67.7447 5.3765 69.6508 3.92465 70.1496 4.26312C70.6484 4.60159 69.9002 6.50769 69.0807 7.71905C68.2613 8.9304 66.3641 10.5604 65.8653 10.2219C65.3665 9.88346 66.1058 7.79921 66.9252 6.58785Z" stroke="white" stroke-miterlimit="10"/>
<path d="M84.1247 48.059C88.7742 47.9699 88.0705 48.2193 94.7775 47.3732C104.406 46.1618 106.731 42.1714 107.034 39.4904C107.381 36.4086 102.295 25.4084 89.843 25.1679C86.7167 25.1056 79.3595 30.6101 79.3595 30.6101C78.4866 30.8951 77.9878 31.4117 78.7538 31.581C79.5198 31.7502 83.7773 28.0983 89.6471 26.9493C95.5168 25.8003 105.778 35.5981 106.294 37.2726C106.936 39.3479 103.141 41.0313 97.6634 41.3164C92.1856 41.6014 87.6163 41.6192 82.1741 39.9714" stroke="white" stroke-miterlimit="10"/>
<path d="M74.4695 31.4474C75.9124 30.6547 78.5489 30.1291 78.8428 30.6903C79.1368 31.2514 77.3732 32.73 75.9213 33.5227C74.4784 34.3154 71.7528 35.0191 71.4589 34.458C71.165 33.8968 73.0176 32.2401 74.4695 31.4474Z" stroke="white" stroke-miterlimit="10"/>
<path d="M23.931 36.2216C22.4702 36.3017 20.2435 37.1835 20.2791 37.7892C20.3147 38.3949 22.3366 38.7333 23.7885 38.6532C25.2492 38.573 27.6274 37.7892 27.5918 37.1835C27.5562 36.5778 25.3917 36.1414 23.931 36.2216Z" stroke="white" stroke-miterlimit="10"/>
<path d="M38.681 32.1688C37.2203 32.249 34.9935 33.1308 35.0291 33.7364C35.0648 34.3421 37.0867 34.6806 38.5385 34.6004C39.9993 34.5203 42.3774 33.7364 42.3418 33.1308C42.3062 32.5251 40.1418 32.0886 38.681 32.1688Z" fill="white" stroke="white" stroke-miterlimit="10"/>
<path d="M17.6693 40.016C19.2013 39.4459 19.8783 39.25 20.3771 39.1342C21.054 38.9739 20.6087 38.4751 19.8426 38.1989C19.8426 38.1989 18.5333 38.671 16.3422 39.5973" stroke="white" stroke-miterlimit="10"/>
<path d="M13.2604 40.8176C9.77771 42.3941 6.68697 44.2379 7.02543 45.378C7.88942 48.2639 16.3066 51.7465 24.6435 52.5214C26.6476 52.7085 33.6575 53.6348 37.5142 54.1514C39.7142 54.4454 41.9677 54.1425 43.9807 53.1984C47.3921 51.5951 50.661 49.1189 55.2125 47.9343C58.6239 47.0436 62.2312 47.3019 65.5446 48.5044C67.2726 49.1368 69.1164 49.3862 70.9512 49.2526C79.021 48.6736 84.962 47.9699 84.962 47.9699C84.766 46.8922 83.4032 40.6484 82.1652 39.9803C78.1214 37.7981 75.093 38.386 70.4257 35.7139C70.0872 35.5179 69.6419 35.2596 69.1431 34.9657C66.4888 33.398 65.7851 29.8887 67.6022 27.3947C69.2767 25.0967 70.6216 22.8076 72.4209 19.0666C76.0549 11.5224 77.4088 2.51735 75.378 0.290591C73.8727 -1.36612 69.0273 4.60159 69.0273 4.60159C68.867 5.40323 69.0629 6.04453 69.5528 5.54574C70.7731 4.29876 73.4274 -0.128039 73.9618 1.96511C74.4606 3.91575 74.9505 9.23325 70.3099 17.3208C67.9674 21.4092 62.4183 26.3793 58.998 29.2295C57.3858 30.5745 55.4886 31.5186 53.44 31.9551C48.2739 33.0774 37.1401 36.1592 32.3838 38.8759C30.8161 39.7666 29.0703 40.2743 27.28 40.3901C24.2338 40.586 19.9228 40.7107 17.6604 40.0338C11.9956 38.3414 12.0579 37.2548 10.6417 35.8297C9.11859 34.2887 26.5675 32.7745 35.1093 33.8701C35.8041 33.9592 36.1871 33.211 35.4122 32.9349C35.4122 32.9349 28.6873 32.5162 22.7998 32.9349C15.2288 33.4693 8.45056 33.9146 8.45947 36.1859C8.47728 39.1965 14.5519 41.7885 18.3819 42.5099C20.484 42.9107 27.5918 43.3472 30.5044 44.9059C31.7603 45.5829 32.1611 47.4622 30.4687 48.5756C28.9456 49.5732 25.4541 49.8493 24.2071 49.8226C14.8903 49.6266 10.5793 46.4647 9.17203 45.0395C8.28132 44.1399 11.1761 42.7326 14.5073 41.3698" stroke="white" stroke-miterlimit="10"/>
</g>
<defs>
<clipPath id="clip0_180_461">
<rect width="114.33" height="80.6" fill="white"/>
</clipPath>
</defs>
</svg>
