<svg width="90" height="70" viewBox="0 0 90 70" fill="none" xmlns="http://www.w3.org/2000/svg">
<g clip-path="url(#clip0_180_549)">
<path d="M79.4787 0.448792H10.1026C4.77095 0.448792 0.448807 4.77094 0.448807 10.1026V48.0265C0.448807 53.3582 4.77095 57.6803 10.1026 57.6803H79.4787C84.8104 57.6803 89.1325 53.3582 89.1325 48.0265V10.1026C89.1325 4.77094 84.8104 0.448792 79.4787 0.448792Z" stroke="white" stroke-width="2" stroke-miterlimit="10"/>
<path d="M0.448807 46.4781H89.1325" stroke="white" stroke-width="2" stroke-miterlimit="10"/>
<path d="M41.8465 57.6803L35.9088 69.5512H53.6905L48.5112 57.6803" stroke="white" stroke-width="2" stroke-miterlimit="10"/>
<path d="M35.3538 31.815C39.8206 29.7169 42.9966 27.0685 42.4476 25.8996C41.8986 24.7307 37.8324 25.4841 33.3656 27.5822C28.8988 29.6803 25.7228 32.3287 26.2718 33.4976C26.8208 34.6665 30.887 33.9131 35.3538 31.815Z" stroke="white" stroke-width="2" stroke-miterlimit="10"/>
<path d="M41.6251 19.5464C42.2027 18.3197 39.0603 15.6255 34.6065 13.5288C30.1527 11.432 26.0741 10.7267 25.4966 11.9534C24.9191 13.1801 28.0614 15.8743 32.5152 17.971C36.969 20.0678 41.0476 20.7731 41.6251 19.5464Z" stroke="white" stroke-width="2" stroke-miterlimit="10"/>
<path d="M63.7683 33.433C64.3317 32.2353 61.1772 29.5659 56.7227 27.4707C52.2682 25.3755 48.2004 24.648 47.6371 25.8457C47.0737 27.0434 50.2281 29.7129 54.6826 31.8081C59.1371 33.9033 63.2049 34.6308 63.7683 33.433Z" stroke="white" stroke-width="2" stroke-miterlimit="10"/>
<path d="M56.976 17.5487C61.4331 15.459 64.6232 12.8625 64.1013 11.7494C63.5794 10.6362 59.5431 11.4279 55.086 13.5176C50.629 15.6074 47.4389 18.2038 47.9608 19.317C48.4827 20.4301 52.519 19.6384 56.976 17.5487Z" stroke="white" stroke-width="2" stroke-miterlimit="10"/>
<path d="M56.132 7.90794C54.7451 7.0238 51.0111 4.90095 45.8454 5.04457C44.3778 5.08496 43.0314 5.30039 41.8151 5.61904" stroke="white" stroke-width="2" stroke-miterlimit="10"/>
<path d="M42.3806 2.68384L34.733 9.24087L44.6336 7.38731L42.3806 2.68384Z" fill="white"/>
<path d="M34.7105 37.1027C36.03 38.0855 39.598 40.4732 44.7637 40.7066C46.2313 40.7739 47.5912 40.6527 48.8254 40.4238" stroke="white" stroke-width="2" stroke-miterlimit="10"/>
<path d="M48.049 43.3141L56.1544 37.3315L46.1416 38.4625L48.049 43.3141Z" fill="white"/>
</g>
<defs>
<clipPath id="clip0_180_549">
<rect width="89.5813" height="70" fill="white"/>
</clipPath>
</defs>
</svg>
