<svg width="23" height="24" viewBox="0 0 23 24" fill="none" xmlns="http://www.w3.org/2000/svg">
<path d="M0 23.0793V23.8C0 23.9105 0.089543 24 0.2 24H22.1734C22.2839 24 22.3734 23.9105 22.3734 23.8V23.0793C22.3734 16.8798 18.4143 13.4731 11.202 13.4731C3.98977 13.4731 0 16.8798 0 23.0793ZM11.1714 15.3146C16.9088 15.3146 20.0019 17.5429 20.4507 21.9412C20.4626 22.0574 20.3705 22.1586 20.2537 22.1586H2.089C1.97217 22.1586 1.88015 22.0574 1.89201 21.9412C2.34082 17.5429 5.43393 15.3146 11.1714 15.3146Z" fill="white"/>
<path d="M17.0022 5.95397C17.0022 2.57801 14.4856 0 11.171 0C7.85647 0 5.33984 2.54732 5.33984 5.95397C5.33984 9.45269 7.94854 12.2762 11.171 12.2762C14.3936 12.2762 17.0022 9.45269 17.0022 5.95397ZM7.18128 5.95397C7.18128 3.59079 8.86926 1.84143 11.171 1.84143C13.4728 1.84143 15.1608 3.59079 15.1608 5.95397C15.1608 8.4399 13.3808 10.4348 11.171 10.4348C8.96133 10.4348 7.18128 8.4399 7.18128 5.95397Z" fill="white"/>
</svg>
