<svg width="24" height="24" viewBox="0 0 24 24" fill="none" xmlns="http://www.w3.org/2000/svg">
<path d="M23.64 21.96L17.16 15.48C18.48 13.8 19.2 11.76 19.2 9.6C19.2 4.32 14.88 0 9.6 0C4.32 0 0 4.32 0 9.6C0 14.88 4.32 19.2 9.6 19.2C11.76 19.2 13.8 18.48 15.48 17.16L21.96 23.64C22.2 23.88 22.56 24 22.8 24C23.04 24 23.4 23.88 23.64 23.64C24.12 23.16 24.12 22.44 23.64 21.96ZM2.4 9.6C2.4 5.64 5.64 2.4 9.6 2.4C13.56 2.4 16.8 5.64 16.8 9.6C16.8 13.56 13.56 16.8 9.6 16.8C5.64 16.8 2.4 13.56 2.4 9.6Z" fill="white"/>
</svg>
