<svg width="83" height="82" viewBox="0 0 83 82" fill="none" xmlns="http://www.w3.org/2000/svg">
<path opacity="1" d="M35.0678 49.1923C37.9433 47.8417 39.9841 46.1288 39.626 45.3664C39.2679 44.6039 36.6465 45.0807 33.771 46.4312C30.8955 47.7818 28.8547 49.4947 29.2128 50.2571C29.5709 51.0196 32.1923 50.5428 35.0678 49.1923Z" stroke="white" stroke-miterlimit="10"/>
<path opacity="1" d="M39.1047 41.2566C39.4737 40.4726 37.4426 38.7402 34.5681 37.3871C31.6935 36.034 29.0641 35.5727 28.695 36.3566C28.326 37.1406 30.3571 38.873 33.2317 40.2261C36.1063 41.5792 38.7357 42.0406 39.1047 41.2566Z" stroke="white" stroke-miterlimit="10"/>
<path opacity="1" d="M53.4216 50.208C53.7903 49.424 51.7587 47.6923 48.8839 46.3401C46.009 44.988 43.3795 44.5275 43.0107 45.3115C42.642 46.0956 44.6736 47.8273 47.5484 49.1795C50.4233 50.5316 53.0528 50.9921 53.4216 50.208Z" stroke="white" stroke-miterlimit="10"/>
<path opacity="1" d="M49.0589 39.9484C51.9354 38.5997 53.9939 36.9235 53.6567 36.2044C53.3196 35.4852 50.7144 35.9956 47.8379 37.3442C44.9615 38.6928 42.903 40.3691 43.2401 41.0882C43.5773 41.8073 46.1824 41.297 49.0589 39.9484Z" stroke="white" stroke-miterlimit="10"/>
<path opacity="1" d="M40.1764 11.7205C42.2222 11.7205 43.8807 9.32066 43.8807 6.36026C43.8807 3.39987 42.2222 1 40.1764 1C38.1306 1 36.4722 3.39987 36.4722 6.36026C36.4722 9.32066 38.1306 11.7205 40.1764 11.7205Z" stroke="white" stroke-miterlimit="10"/>
<path opacity="1" d="M45.2751 11.3718C45.2751 11.3718 53.5116 14.7274 56.998 17.6908C59.3077 19.6519 61.4431 21.7873 60.0921 23.2254C58.7847 24.5764 54.6447 19.5212 52.1171 19.6083C50.7225 19.6519 49.8945 22.5717 49.1101 26.3195C49.1101 26.3195 45.5802 24.2277 41.353 24.0098C36.9514 23.7919 32.9421 25.6658 32.9421 25.6658C31.2425 20.0877 31.9834 17.3858 28.8892 16.1655C26.4052 15.2068 22.7446 16.8192 17.7765 20.5235C14.3773 23.0511 12.7649 25.5787 11.2396 23.8791C9.84505 22.3102 13.0263 18.083 17.3407 15.2504C24.357 10.631 30.5017 9.80295 34.5546 10.2387C34.5546 10.2387 36.8643 13.0714 39.2176 13.5508C41.7887 14.0737 43.3576 12.8971 45.2751 11.3718Z" stroke="white" stroke-miterlimit="10"/>
<path opacity="1" d="M11.3419 34.2499C11.9947 32.3111 10.2495 29.9736 7.44398 29.0289C4.63841 28.0842 1.83484 28.8902 1.18203 30.829C0.529211 32.7678 2.27436 35.1053 5.07992 36.0499C7.88549 36.9946 10.6891 36.1887 11.3419 34.2499Z" stroke="white" stroke-miterlimit="10"/>
<path opacity="1" d="M12.6343 29.3266C12.6343 29.3266 18.4304 22.6154 22.3525 20.2185C24.9237 18.6497 27.6692 17.2987 28.5844 19.0854C29.456 20.7415 23.3549 23.0948 22.614 25.4916C22.1782 26.8426 24.7058 28.5422 28.0179 30.5032C28.0179 30.5032 24.9237 33.2052 23.3549 37.1273C21.6989 41.2238 22.2654 45.6253 22.2654 45.6253C16.4257 45.451 14.116 43.9257 11.9806 46.4533C10.2811 48.5015 10.6297 52.5108 12.5908 58.3941C13.8981 62.4034 15.7721 64.7566 13.6802 65.6718C11.7192 66.4998 8.75577 62.1419 7.44839 57.1303C5.313 49.0245 6.48964 42.9234 8.23282 39.2191C8.23282 39.2191 11.6756 37.9117 12.8522 35.8635C14.0725 33.4666 13.4623 31.6363 12.6343 29.3266Z" stroke="white" stroke-miterlimit="10"/>
<path opacity="1" d="M23.6526 76.6388C25.3737 74.2302 25.4197 71.3135 23.7552 70.1241C22.0908 68.9346 19.3462 69.9229 17.625 72.3315C15.9038 74.7401 15.8579 77.6568 17.5223 78.8463C19.1868 80.0357 21.9314 79.0474 23.6526 76.6388Z" stroke="white" stroke-miterlimit="10"/>
<path opacity="1" d="M19.4328 67.4585C19.4328 67.4585 14.6827 59.9629 13.5496 55.5178C12.8087 52.5979 12.3294 49.591 14.2469 49.2423C16.0772 48.8937 16.5566 55.4306 18.6048 56.8251C19.7814 57.6096 22.1347 55.6921 24.9674 53.1209C24.9674 53.1209 26.6234 56.8687 29.9354 59.5271C33.3782 62.2726 37.7797 63.057 37.7797 63.057C35.9058 68.5916 33.7704 70.3783 35.5572 73.1674C36.9953 75.39 40.961 76.218 47.1493 76.0436C51.3765 75.9565 54.2092 74.8234 54.4271 77.1331C54.645 79.2249 49.6333 80.8374 44.4474 80.6195C36.0801 80.2708 30.5891 77.3946 27.5386 74.6491C27.5386 74.6491 27.3207 70.9884 25.6647 69.2453C23.8343 67.2842 21.8733 67.3713 19.4328 67.4585Z" stroke="white" stroke-miterlimit="10"/>
<path opacity="1" d="M66.5035 77.4219C68.1588 76.2198 68.0905 73.3036 66.3509 70.9083C64.6114 68.5131 61.8594 67.5458 60.2041 68.7479C58.5489 69.9501 58.6172 72.8663 60.3567 75.2615C62.0962 77.6568 64.8483 78.624 66.5035 77.4219Z" stroke="white" stroke-miterlimit="10"/>
<path opacity="1" d="M56.3011 72.0343C56.3011 72.0343 47.6723 74.1697 43.0965 73.8211C40.0895 73.6032 37.0826 73.1238 37.344 71.1628C37.6055 69.2888 43.9245 70.9449 45.9292 69.4196C47.0622 68.5916 45.9727 65.7153 44.4039 62.229C44.4039 62.229 48.4568 61.8368 52.0303 59.5271C55.7345 57.1302 57.8699 53.208 57.8699 53.208C62.5329 56.738 63.5352 59.3527 66.7601 58.5247C69.3313 57.871 71.336 54.3847 73.1663 48.4579C74.4301 44.405 74.2558 41.398 76.5219 41.8774C78.5701 42.3568 78.483 47.6299 76.6526 52.4672C73.6892 60.3115 69.2006 64.6259 65.6271 66.6305C65.6271 66.6305 62.0535 65.7153 59.9182 66.6741C57.5213 67.8071 56.9548 69.6811 56.3011 72.0343Z" stroke="white" stroke-miterlimit="10"/>
<path opacity="1" d="M77.0015 34.6932C79.829 33.8164 81.6298 31.5215 81.0239 29.5676C80.4179 27.6136 77.6346 26.7405 74.8071 27.6174C71.9796 28.4942 70.1787 30.7891 70.7847 32.743C71.3907 34.6969 74.174 35.5701 77.0015 34.6932Z" stroke="white" stroke-miterlimit="10"/>
<path opacity="1" d="M72.6432 37.5196C72.6432 37.5196 71.8587 46.3662 70.072 50.5934C68.8953 53.3825 67.4572 56.0409 65.6705 55.1693C63.9709 54.3413 67.588 48.8503 66.7599 46.497C66.3242 45.146 63.2736 45.2768 59.4386 45.6254C59.4386 45.6254 60.3538 41.6597 59.3514 37.5196C58.262 33.2488 55.255 29.9804 55.255 29.9804C60.0923 26.7119 62.8814 26.5812 63.1429 23.2692C63.3172 20.6108 60.7024 17.6038 55.6472 13.9432C52.2044 11.4592 49.3282 10.6311 50.5048 8.67007C51.5943 6.88331 56.5624 8.62649 60.5717 11.9385C67.065 17.2552 69.6798 22.9205 70.4642 26.9298C70.4642 26.9298 68.416 30.024 68.6774 32.3337C69.0261 34.992 70.5949 36.1251 72.6432 37.5196Z" stroke="white" stroke-miterlimit="10"/>
</svg>
