<?xml version="1.0" encoding="UTF-8"?><svg id="Layer_2" xmlns="http://www.w3.org/2000/svg" viewBox="0 0 146 175.98"><defs><style>.cls-1{fill:none;stroke:#fff;stroke-miterlimit:10;stroke-width:2px;}</style></defs><g id="Layer_1-2"><path class="cls-1" d="m126.83,51.22c-3.37,1.39-.1,4.57-1.89,7.13-2.41,3.43-1.39,2.69-5.49,9.54l-27.78-12.46c6.16-8.72,6.92-9.29,5.93-12.81-1.54-5.45-6.82-11.51-6.51-20.55.32-9.1,6.83-16.39,15.99-19.39,14.06-4.6,26.55.86,33.04,8.66,9.07,10.9,3.36,39.44-.08,42.49-2.44,2.16-11.46-.87-19.68-6.35-2.06-1.37-1.8-4.85-2.14-8.3"/><path class="cls-1" d="m19.17,51.22c3.37,1.39,1.35,5.56,3.15,8.12,2.41,3.43.16,1.47,5.36,8l25.93-12.19c-3.82-5.4-6.19-9.01-5.2-12.53,1.54-5.45,6.82-11.51,6.51-20.55-.32-9.1-6.83-16.39-15.99-19.39C24.86-1.92,12.37,3.54,5.88,11.35c-9.07,10.9-3.36,39.44.08,42.49,2.44,2.16,11.46-.87,19.68-6.35,2.06-1.37,1.8-4.85,2.14-8.3"/><circle class="cls-1" cx="20.32" cy="27.53" r="4.75"/><circle class="cls-1" cx="29.89" cy="13.79" r="4.75"/><circle class="cls-1" cx="125.53" cy="27.53" r="4.75"/><circle class="cls-1" cx="115.52" cy="11.76" r="4.75"/><polyline class="cls-1" points="32.92 17.34 32.92 95.59 112.3 95.59 112.3 15.36"/><line class="cls-1" x1="72.77" y1="95.59" x2="72.77" y2="134.64"/><ellipse class="cls-1" cx="51.81" cy="167.66" rx="15.04" ry="3.93" transform="translate(-66.37 37.94) rotate(-25.16)"/><ellipse class="cls-1" cx="50.46" cy="138.5" rx="4.13" ry="15" transform="translate(-96.34 125.16) rotate(-64.79)"/><ellipse class="cls-1" cx="94.54" cy="167.56" rx="4.03" ry="15" transform="translate(-97.32 181.8) rotate(-64.81)"/><ellipse class="cls-1" cx="95.1" cy="138.13" rx="15" ry="3.74" transform="translate(-49.65 53.44) rotate(-25.12)"/><line class="cls-1" x1="25.06" y1="27.53" x2="32.92" y2="27.53"/><line class="cls-1" x1="112.61" y1="27.53" x2="120.47" y2="27.53"/></g></svg>