<?xml version="1.0" encoding="UTF-8"?><svg id="Layer_2" xmlns="http://www.w3.org/2000/svg" viewBox="0 0 218 86.05"><defs><style>.cls-1{fill:none;stroke:#fff;stroke-miterlimit:10;stroke-width:2px;}</style></defs><g id="Layer_1-2"><path class="cls-1" d="m194.04,64.44c-4.26,1.75-.12,5.77-2.39,9-3.04,4.34-1.65,3.11-6.66,11.32l-34.56-16.18c4.82-7.7,7.93-10.56,6.68-15.01-1.94-6.89-8.62-14.54-8.22-25.96.4-11.49,8.63-20.71,20.2-24.49,17.76-5.81,33.54,1.08,41.74,10.94,11.45,13.77,4.24,49.82-.1,53.67-3.08,2.72-14.47-1.1-24.86-8.02-2.6-1.74-2.28-6.12-2.71-10.48"/><line class="cls-1" x1="120.39" y1="27.11" x2="72.88" y2="27.11"/><circle class="cls-1" cx="179.89" cy="15.71" r="5.87"/><circle class="cls-1" cx="191.78" cy="33.77" r="5.87"/><polyline class="cls-1" points="176.47 10.84 120.39 10.84 120.39 38.59 188.85 38.59"/><ellipse class="cls-1" cx="17.11" cy="42.87" rx="16.11" ry="4.22" transform="translate(-16.61 11.34) rotate(-25.16)"/><ellipse class="cls-1" cx="15.67" cy="11.63" rx="4.43" ry="16.08" transform="translate(-1.53 20.85) rotate(-64.79)"/><ellipse class="cls-1" cx="62.92" cy="42.77" rx="4.32" ry="16.08" transform="translate(-2.56 81.5) rotate(-64.81)"/><ellipse class="cls-1" cx="63.51" cy="11.23" rx="16.08" ry="4.01" transform="translate(1.24 28.02) rotate(-25.12)"/></g></svg>