<svg width="125" height="151" viewBox="0 0 125 151" fill="none" xmlns="http://www.w3.org/2000/svg">
<path d="M107.844 43.6511C104.991 44.823 107.759 47.5235 106.231 49.6975C104.193 52.6188 105.059 51.9903 101.577 57.7989L77.9862 47.2178C83.2173 39.8127 83.8627 39.3372 83.0135 36.331C81.7057 31.6943 77.2219 26.5481 77.4936 18.8882C77.7654 11.1605 83.2852 4.96124 91.0809 2.4306C103.021 -1.47575 113.636 3.16092 119.139 9.78474C126.833 19.0411 121.992 43.2775 119.071 45.8591C116.999 47.6934 109.339 45.1287 102.358 40.4581C100.609 39.2862 100.83 36.3479 100.541 33.4097" stroke="white" stroke-width="2" stroke-miterlimit="10"/>
<path d="M16.4356 43.6514C19.289 44.8233 17.5906 48.373 19.1022 50.5469C21.1403 53.4682 19.238 51.8038 23.6539 57.3406L45.6823 46.9973C42.4384 42.4115 40.4173 39.3374 41.2665 36.3482C42.5742 31.7115 47.0581 26.5653 46.7863 18.9055C46.5146 11.1777 40.9947 4.97848 33.199 2.44784C21.2591 -1.47549 10.661 3.16118 5.14119 9.785C-2.55263 19.0414 2.28786 43.2777 5.20913 45.8593C7.28119 47.6936 14.941 45.129 21.9215 40.4584C23.6709 39.2865 23.4501 36.3482 23.7388 33.4099" stroke="white" stroke-width="2" stroke-miterlimit="10"/>
<path d="M17.4037 27.5669C19.6362 27.5669 21.4459 25.7571 21.4459 23.5246C21.4459 21.2922 19.6362 19.4824 17.4037 19.4824C15.1713 19.4824 13.3615 21.2922 13.3615 23.5246C13.3615 25.7571 15.1713 27.5669 17.4037 27.5669Z" stroke="white" stroke-width="2" stroke-miterlimit="10"/>
<path d="M25.5222 15.9165C27.7546 15.9165 29.5644 14.1067 29.5644 11.8743C29.5644 9.6418 27.7546 7.83203 25.5222 7.83203C23.2897 7.83203 21.4799 9.6418 21.4799 11.8743C21.4799 14.1067 23.2897 15.9165 25.5222 15.9165Z" stroke="white" stroke-width="2" stroke-miterlimit="10"/>
<path d="M106.757 27.5669C108.99 27.5669 110.8 25.7571 110.8 23.5246C110.8 21.2922 108.99 19.4824 106.757 19.4824C104.525 19.4824 102.715 21.2922 102.715 23.5246C102.715 25.7571 104.525 27.5669 106.757 27.5669Z" stroke="white" stroke-width="2" stroke-miterlimit="10"/>
<path d="M98.2482 14.1831C100.481 14.1831 102.29 12.3733 102.29 10.1409C102.29 7.9084 100.481 6.09863 98.2482 6.09863C96.0158 6.09863 94.206 7.9084 94.206 10.1409C94.206 12.3733 96.0158 14.1831 98.2482 14.1831Z" stroke="white" stroke-width="2" stroke-miterlimit="10"/>
<path d="M28.1037 14.8806V81.3396H95.5138V13.1992" stroke="white" stroke-width="2" stroke-miterlimit="10"/>
<path d="M61.9531 81.3389V114.492" stroke="white" stroke-width="2" stroke-miterlimit="10"/>
<path d="M45.5471 145.57C51.9316 142.571 56.4705 138.784 55.6849 137.111C54.8993 135.439 49.0867 136.514 42.7021 139.513C36.3175 142.512 31.7786 146.299 32.5642 147.971C33.3499 149.644 39.1625 148.569 45.5471 145.57Z" stroke="white" stroke-width="2" stroke-miterlimit="10"/>
<path d="M54.5245 123.195C55.3516 121.438 50.8622 117.585 44.4972 114.588C38.1322 111.592 32.3019 110.587 31.4749 112.344C30.6478 114.1 35.1372 117.954 41.5022 120.95C47.8672 123.947 53.6975 124.952 54.5245 123.195Z" stroke="white" stroke-width="2" stroke-miterlimit="10"/>
<path d="M91.9616 147.876C92.764 146.17 88.2539 142.36 81.8878 139.365C75.5218 136.371 69.7106 135.327 68.9081 137.033C68.1056 138.739 72.6158 142.549 78.9818 145.544C85.3479 148.538 91.1591 149.582 91.9616 147.876Z" stroke="white" stroke-width="2" stroke-miterlimit="10"/>
<path d="M82.2626 120.343C88.6323 117.357 93.1923 113.648 92.4477 112.06C91.703 110.472 85.9357 111.605 79.566 114.592C73.1964 117.578 68.6363 121.287 69.381 122.875C70.1256 124.463 75.8929 123.33 82.2626 120.343Z" stroke="white" stroke-width="2" stroke-miterlimit="10"/>
<path d="M21.429 23.5249H28.1038" stroke="white" stroke-width="2" stroke-miterlimit="10"/>
<path d="M95.7686 23.5249H102.46" stroke="white" stroke-width="2" stroke-miterlimit="10"/>
</svg>
